<?xml version="1.0" encoding="UTF-8" standalone="no"?>
<!DOCTYPE svg PUBLIC "-//W3C//DTD SVG 1.1//EN"
 "http://www.w3.org/Graphics/SVG/1.1/DTD/svg11.dtd">
<!-- Generated by graphviz version 2.40.1 (20161225.0304)
 -->
<!-- Title: %3 Pages: 1 -->
<svg width="1432pt" height="1258pt"
 viewBox="0.00 0.00 1432.00 1258.00" xmlns="http://www.w3.org/2000/svg" xmlns:xlink="http://www.w3.org/1999/xlink">
<g id="graph0" class="graph" transform="scale(1 1) rotate(0) translate(4 1254)">
<title>%3</title>
<polygon fill="#ffffff" stroke="transparent" points="-4,4 -4,-1254 1428,-1254 1428,4 -4,4"/>
<g id="clust1" class="cluster">
<title>cluster_key</title>
<polygon fill="none" stroke="#000000" points="956.7381,-957.1409 956.7381,-1250.1409 1423.7381,-1250.1409 1423.7381,-957.1409 956.7381,-957.1409"/>
<text text-anchor="middle" x="1190.2381" y="-1234.9409" font-family="Times,serif" font-size="14.00" fill="#000000">Key</text>
</g>
<g id="clust2" class="cluster">
<title>cluster_doc</title>
<polygon fill="none" stroke="#000000" points="1194.4762,-1102.7818 1194.4762,-1218.7818 1415.4762,-1218.7818 1415.4762,-1102.7818 1194.4762,-1102.7818"/>
</g>
<g id="clust3" class="cluster">
<title>cluster_sub</title>
<polygon fill="none" stroke="#000000" points="965.1124,-965.1466 965.1124,-1183.1466 1158.1124,-1183.1466 1158.1124,-965.1466 965.1124,-965.1466"/>
</g>
<g id="clust4" class="cluster">
<title>cluster_directives</title>
<polygon fill="none" stroke="#000000" points=".3237,-479.2893 .3237,-1088.2893 664.3237,-1088.2893 664.3237,-479.2893 .3237,-479.2893"/>
<text text-anchor="middle" x="332.3237" y="-1073.0893" font-family="Times,serif" font-size="14.00" fill="#000000">Directives</text>
</g>
<g id="clust5" class="cluster">
<title>cluster_primary</title>
<polygon fill="none" stroke="#000000" points="526.5618,-930.9302 526.5618,-1056.9302 656.5618,-1056.9302 656.5618,-930.9302 526.5618,-930.9302"/>
<text text-anchor="middle" x="591.5618" y="-1041.7302" font-family="Times,serif" font-size="14.00" fill="#000000">Primary</text>
</g>
<g id="clust6" class="cluster">
<title>cluster_secondary</title>
<polygon fill="none" stroke="#000000" points="8.6738,-487.4461 8.6738,-874.4461 538.6738,-874.4461 538.6738,-487.4461 8.6738,-487.4461"/>
<text text-anchor="middle" x="273.6738" y="-859.2461" font-family="Times,serif" font-size="14.00" fill="#000000">Secondary</text>
</g>
<g id="clust7" class="cluster">
<title>cluster_directives_lighting</title>
<polygon fill="none" stroke="#000000" points="304.9119,-711.087 304.9119,-843.087 530.9119,-843.087 530.9119,-711.087 304.9119,-711.087"/>
<text text-anchor="middle" x="417.9119" y="-827.887" font-family="Times,serif" font-size="14.00" fill="#000000">Lighting</text>
</g>
<g id="clust8" class="cluster">
<title>cluster_directives_temperature</title>
<polygon fill="none" stroke="#000000" points="17.1738,-540.7617 17.1738,-674.7617 340.1738,-674.7617 340.1738,-540.7617 17.1738,-540.7617"/>
<text text-anchor="middle" x="178.6738" y="-659.5617" font-family="Times,serif" font-size="14.00" fill="#000000">Temperature</text>
</g>
<g id="clust9" class="cluster">
<title>cluster_sensor</title>
<polygon fill="none" stroke="#000000" points="888.8605,-737.5473 888.8605,-813.5473 1014.8605,-813.5473 1014.8605,-737.5473 888.8605,-737.5473"/>
<text text-anchor="middle" x="951.8605" y="-798.3473" font-family="Times,serif" font-size="14.00" fill="#000000">Sensors</text>
</g>
<g id="clust10" class="cluster">
<title>cluster_api</title>
<polygon fill="none" stroke="#000000" points="367.6765,-.2345 367.6765,-471.2345 902.6765,-471.2345 902.6765,-.2345 367.6765,-.2345"/>
<text text-anchor="middle" x="635.1765" y="-456.0345" font-family="Times,serif" font-size="14.00" fill="#000000">api</text>
</g>
<g id="clust11" class="cluster">
<title>cluster_api_sensor</title>
<polygon fill="none" stroke="#000000" points="615.8325,-69.0458 615.8325,-145.0458 738.8325,-145.0458 738.8325,-69.0458 615.8325,-69.0458"/>
<text text-anchor="middle" x="677.3325" y="-129.8458" font-family="Times,serif" font-size="14.00" fill="#000000">sensor</text>
</g>
<g id="clust12" class="cluster">
<title>cluster_recipe</title>
<polygon fill="none" stroke="#000000" points="375.814,-8.4367 375.814,-206.4367 607.814,-206.4367 607.814,-8.4367 375.814,-8.4367"/>
<text text-anchor="middle" x="491.814" y="-191.2367" font-family="Times,serif" font-size="14.00" fill="#000000">recipe</text>
</g>
<g id="clust13" class="cluster">
<title>cluster_schedule</title>
<polygon fill="none" stroke="#000000" points="384.0521,-34.5776 384.0521,-175.5776 524.0521,-175.5776 524.0521,-34.5776 384.0521,-34.5776"/>
<text text-anchor="middle" x="454.0521" y="-160.3776" font-family="Times,serif" font-size="14.00" fill="#000000">schedule</text>
</g>
<g id="clust14" class="cluster">
<title>cluster_settings</title>
<polygon fill="none" stroke="#000000" points="665.4146,-181.8754 665.4146,-439.8754 894.4146,-439.8754 894.4146,-181.8754 665.4146,-181.8754"/>
<text text-anchor="middle" x="779.9146" y="-424.6754" font-family="Times,serif" font-size="14.00" fill="#000000">settings</text>
</g>
<g id="clust15" class="cluster">
<title>cluster_time</title>
<polygon fill="none" stroke="#000000" points="728.6528,-332.5162 728.6528,-408.5162 798.6528,-408.5162 798.6528,-332.5162 728.6528,-332.5162"/>
<text text-anchor="middle" x="763.6528" y="-393.3162" font-family="Times,serif" font-size="14.00" fill="#000000">time</text>
</g>
<g id="clust16" class="cluster">
<title>cluster_lighting</title>
<polygon fill="none" stroke="#000000" points="673.6528,-189.5162 673.6528,-315.5162 803.6528,-315.5162 803.6528,-189.5162 673.6528,-189.5162"/>
<text text-anchor="middle" x="738.6528" y="-300.3162" font-family="Times,serif" font-size="14.00" fill="#000000">lighting</text>
</g>
<g id="clust17" class="cluster">
<title>cluster_settings_recipe</title>
<polygon fill="none" stroke="#000000" points="816.6528,-332.5162 816.6528,-408.5162 886.6528,-408.5162 886.6528,-332.5162 816.6528,-332.5162"/>
<text text-anchor="middle" x="851.6528" y="-393.3162" font-family="Times,serif" font-size="14.00" fill="#000000">recipe</text>
</g>
<!-- Done -->
<g id="node1" class="node">
<title>Done</title>
<polygon fill="#7fff00" stroke="#000000" points="1230.7144,-1174.4227 1230.7144,-1210.4227 1284.7144,-1210.4227 1284.7144,-1174.4227 1230.7144,-1174.4227"/>
<text text-anchor="middle" x="1257.7144" y="-1188.7227" font-family="Times,serif" font-size="14.00" fill="#000000">Done</text>
</g>
<!-- Documented -->
<g id="node2" class="node">
<title>Documented</title>
<polygon fill="#caff70" stroke="#000000" points="1300.2144,-1160.4227 1300.2144,-1196.4227 1407.2144,-1196.4227 1407.2144,-1160.4227 1300.2144,-1160.4227"/>
<text text-anchor="middle" x="1353.7144" y="-1174.7227" font-family="Times,serif" font-size="14.00" fill="#000000">Documented</text>
</g>
<!-- Undocumented -->
<g id="node3" class="node">
<title>Undocumented</title>
<polygon fill="#ff6347" stroke="#000000" points="1202.7144,-1111.4227 1202.7144,-1147.4227 1328.7144,-1147.4227 1328.7144,-1111.4227 1202.7144,-1111.4227"/>
<text text-anchor="middle" x="1265.7144" y="-1125.7227" font-family="Times,serif" font-size="14.00" fill="#000000">Undocumented</text>
</g>
<!-- Depend on value -->
<g id="node4" class="node">
<title>Depend on value</title>
<polygon fill="transparent" stroke="#000000" points="986.0629,-974.0879 986.0629,-1010.0879 1122.0629,-1010.0879 1122.0629,-974.0879 986.0629,-974.0879"/>
<text text-anchor="middle" x="1054.0629" y="-988.3879" font-family="Times,serif" font-size="14.00" fill="#000000">Depend on value</text>
</g>
<!-- Node -->
<g id="node8" class="node">
<title>Node</title>
<polygon fill="transparent" stroke="#000000" points="1166.1256,-1036.4232 1166.1256,-1072.4232 1221.1256,-1072.4232 1221.1256,-1036.4232 1166.1256,-1036.4232"/>
<text text-anchor="middle" x="1193.6256" y="-1050.7232" font-family="Times,serif" font-size="14.00" fill="#000000">Node</text>
</g>
<!-- Depend on value&#45;&gt;Node -->
<g id="edge1" class="edge">
<title>Depend on value&#45;&gt;Node</title>
<path fill="none" stroke="#0000ff" d="M1094.4302,-1010.1178C1113.989,-1018.8537 1137.3213,-1029.275 1156.442,-1037.8152"/>
<polygon fill="#0000ff" stroke="#0000ff" points="1155.1761,-1041.083 1165.7341,-1041.9655 1158.0308,-1034.6915 1155.1761,-1041.083"/>
</g>
<!-- Proxy to value -->
<g id="node5" class="node">
<title>Proxy to value</title>
<polygon fill="transparent" stroke="#000000" points="1021.3692,-1042.2431 1021.3692,-1078.2431 1140.3692,-1078.2431 1140.3692,-1042.2431 1021.3692,-1042.2431"/>
<text text-anchor="middle" x="1080.8692" y="-1056.5431" font-family="Times,serif" font-size="14.00" fill="#000000">Proxy to value</text>
</g>
<!-- Proxy to value&#45;&gt;Node -->
<g id="edge2" class="edge">
<title>Proxy to value&#45;&gt;Node</title>
<path fill="none" stroke="#00bfff" d="M1140.5491,-1057.1627C1145.6798,-1056.8979 1150.7739,-1056.635 1155.6606,-1056.3827"/>
<polygon fill="#00bfff" stroke="#00bfff" points="1156.1548,-1059.862 1165.9611,-1055.8511 1155.7939,-1052.8713 1156.1548,-1059.862"/>
</g>
<!-- Depend on function -->
<g id="node6" class="node">
<title>Depend on function</title>
<polygon fill="transparent" stroke="#000000" points="972.9595,-1087.2476 972.9595,-1123.2476 1129.9595,-1123.2476 1129.9595,-1087.2476 972.9595,-1087.2476"/>
<text text-anchor="middle" x="1051.4595" y="-1101.5476" font-family="Times,serif" font-size="14.00" fill="#000000">Depend on function</text>
</g>
<!-- Depend on function&#45;&gt;Node -->
<g id="edge3" class="edge">
<title>Depend on function&#45;&gt;Node</title>
<path fill="none" stroke="#6495ed" d="M1119.188,-1087.1398C1127.1959,-1084.5897 1135.1998,-1081.8469 1142.7492,-1078.9631 1147.3182,-1077.2178 1152.038,-1075.2211 1156.6764,-1073.1372"/>
<polygon fill="#6495ed" stroke="#6495ed" points="1158.4219,-1076.1853 1166.0086,-1068.7899 1155.4659,-1069.84 1158.4219,-1076.1853"/>
</g>
<!-- Proxy to function -->
<g id="node7" class="node">
<title>Proxy to function</title>
<polygon fill="transparent" stroke="#000000" points="1009.7213,-1138.4596 1009.7213,-1174.4596 1149.7213,-1174.4596 1149.7213,-1138.4596 1009.7213,-1138.4596"/>
<text text-anchor="middle" x="1079.7213" y="-1152.7596" font-family="Times,serif" font-size="14.00" fill="#000000">Proxy to function</text>
</g>
<!-- Proxy to function&#45;&gt;Node -->
<g id="edge4" class="edge">
<title>Proxy to function&#45;&gt;Node</title>
<path fill="none" stroke="#1e90ff" d="M1112.9927,-1138.3916C1119.9139,-1134.0425 1126.9629,-1129.1439 1133.0995,-1123.9676 1148.196,-1111.2336 1162.801,-1094.6186 1173.881,-1080.8221"/>
<polygon fill="#1e90ff" stroke="#1e90ff" points="1176.8712,-1082.6816 1180.2973,-1072.656 1171.3669,-1078.3568 1176.8712,-1082.6816"/>
</g>
<!-- Sleep -->
<g id="node9" class="node">
<title>Sleep</title>
<polygon fill="#caff70" stroke="#000000" points="534.7999,-939.571 534.7999,-975.571 590.7999,-975.571 590.7999,-939.571 534.7999,-939.571"/>
<text text-anchor="middle" x="562.7999" y="-953.871" font-family="Times,serif" font-size="14.00" fill="#000000">Sleep</text>
</g>
<!-- Heat -->
<g id="node10" class="node">
<title>Heat</title>
<polygon fill="#caff70" stroke="#000000" points="594.7999,-989.571 594.7999,-1025.571 648.7999,-1025.571 648.7999,-989.571 594.7999,-989.571"/>
<text text-anchor="middle" x="621.7999" y="-1003.871" font-family="Times,serif" font-size="14.00" fill="#000000">Heat</text>
</g>
<!-- All Kill -->
<g id="node11" class="node">
<title>All Kill</title>
<polygon fill="#caff70" stroke="#000000" points="117.2167,-496.2523 117.2167,-532.2523 182.2167,-532.2523 182.2167,-496.2523 117.2167,-496.2523"/>
<text text-anchor="middle" x="149.7167" y="-510.5523" font-family="Times,serif" font-size="14.00" fill="#000000">All Kill</text>
</g>
<!-- Lighting Kill -->
<g id="node13" class="node">
<title>Lighting Kill</title>
<polygon fill="#caff70" stroke="#000000" points="417.1501,-775.7279 417.1501,-811.7279 523.1501,-811.7279 523.1501,-775.7279 417.1501,-775.7279"/>
<text text-anchor="middle" x="470.1501" y="-790.0279" font-family="Times,serif" font-size="14.00" fill="#000000">Lighting Kill</text>
</g>
<!-- All Kill&#45;&gt;Lighting Kill -->
<g id="edge5" class="edge">
<title>All Kill&#45;&gt;Lighting Kill</title>
<path fill="none" stroke="#1e90ff" d="M160.3098,-532.6102C172.527,-553.7532 191.0282,-585.6676 191.6519,-586.1226 225.6491,-610.9202 245.393,-590.0611 284.096,-606.5782 366.8298,-641.8861 401.0364,-645.1545 452.3901,-719.0079 461.8231,-732.5739 466.2852,-750.5148 468.3786,-765.4162"/>
<polygon fill="#1e90ff" stroke="#1e90ff" points="464.9304,-766.0751 469.5215,-775.6236 471.8869,-765.2962 464.9304,-766.0751"/>
</g>
<!-- Temperature Kill -->
<g id="node16" class="node">
<title>Temperature Kill</title>
<polygon fill="#caff70" stroke="#000000" points="194.4119,-549.4026 194.4119,-585.4026 332.4119,-585.4026 332.4119,-549.4026 194.4119,-549.4026"/>
<text text-anchor="middle" x="263.4119" y="-563.7026" font-family="Times,serif" font-size="14.00" fill="#000000">Temperature Kill</text>
</g>
<!-- All Kill&#45;&gt;Temperature Kill -->
<g id="edge6" class="edge">
<title>All Kill&#45;&gt;Temperature Kill</title>
<path fill="none" stroke="#1e90ff" d="M182.2972,-529.4831C192.6526,-534.324 204.3306,-539.7832 215.5321,-545.0197"/>
<polygon fill="#1e90ff" stroke="#1e90ff" points="214.2485,-548.2832 224.7898,-549.3475 217.213,-541.9419 214.2485,-548.2832"/>
</g>
<!-- Lighting Change -->
<g id="node12" class="node">
<title>Lighting Change</title>
<polygon fill="#caff70" stroke="#000000" points="312.6501,-719.7279 312.6501,-755.7279 449.6501,-755.7279 449.6501,-719.7279 312.6501,-719.7279"/>
<text text-anchor="middle" x="381.1501" y="-734.0279" font-family="Times,serif" font-size="14.00" fill="#000000">Lighting Change</text>
</g>
<!-- Temperature Change -->
<g id="node14" class="node">
<title>Temperature Change</title>
<polygon fill="#caff70" stroke="#000000" points="111.716,-607.2982 111.716,-643.2982 280.716,-643.2982 280.716,-607.2982 111.716,-607.2982"/>
<text text-anchor="middle" x="196.216" y="-621.5982" font-family="Times,serif" font-size="14.00" fill="#000000">Temperature Change</text>
</g>
<!-- Temperature Change&#45;&gt;Sleep -->
<g id="edge7" class="edge">
<title>Temperature Change&#45;&gt;Sleep</title>
<path fill="none" stroke="#6495ed" d="M210.3173,-643.6255C230.8994,-669.8748 270.97,-719.1233 309.9101,-756.4479 382.8385,-826.3509 478.3034,-897.4309 528.5109,-933.4415"/>
<polygon fill="#6495ed" stroke="#6495ed" points="526.5855,-936.3673 536.7571,-939.3321 530.6545,-930.6713 526.5855,-936.3673"/>
</g>
<!-- Temperature Change&#45;&gt;Heat -->
<g id="edge8" class="edge">
<title>Temperature Change&#45;&gt;Heat</title>
<path fill="none" stroke="#6495ed" d="M208.6591,-643.5997C248.7761,-701.2377 381.0157,-880.8287 533.6799,-976.291 549.296,-986.0559 568.378,-993.3092 584.7868,-998.3592"/>
<polygon fill="#6495ed" stroke="#6495ed" points="584.0232,-1001.7823 594.6032,-1001.2216 585.9828,-995.0622 584.0232,-1001.7823"/>
</g>
<!-- Temperature -->
<g id="node17" class="node">
<title>Temperature</title>
<polygon fill="#ff6347" stroke="#000000" points="897.2635,-746.3201 897.2635,-782.3201 1007.2635,-782.3201 1007.2635,-746.3201 897.2635,-746.3201"/>
<text text-anchor="middle" x="952.2635" y="-760.6201" font-family="Times,serif" font-size="14.00" fill="#000000">Temperature</text>
</g>
<!-- Temperature Change&#45;&gt;Temperature -->
<g id="edge12" class="edge">
<title>Temperature Change&#45;&gt;Temperature</title>
<path fill="none" stroke="#0000ff" d="M280.7436,-640.8411C432.9914,-668.8364 750.1668,-727.1586 887.0517,-752.329"/>
<polygon fill="#0000ff" stroke="#0000ff" points="886.5161,-755.7891 896.9842,-754.1554 887.7821,-748.9045 886.5161,-755.7891"/>
</g>
<!-- Temperature Hold -->
<g id="node15" class="node">
<title>Temperature Hold</title>
<polygon fill="#caff70" stroke="#000000" points="25.0486,-562.2937 25.0486,-598.2937 174.0486,-598.2937 174.0486,-562.2937 25.0486,-562.2937"/>
<text text-anchor="middle" x="99.5486" y="-576.5937" font-family="Times,serif" font-size="14.00" fill="#000000">Temperature Hold</text>
</g>
<!-- Temperature Hold&#45;&gt;Sleep -->
<g id="edge9" class="edge">
<title>Temperature Hold&#45;&gt;Sleep</title>
<path fill="none" stroke="#6495ed" d="M98.2808,-598.3496C98.1773,-611.8733 99.9036,-630.3244 108.336,-644.0182 210.1931,-809.4291 435.578,-909.4455 525.0892,-943.9467"/>
<polygon fill="#6495ed" stroke="#6495ed" points="523.9782,-947.2687 534.5693,-947.5505 526.4657,-940.7255 523.9782,-947.2687"/>
</g>
<!-- Temperature Hold&#45;&gt;Heat -->
<g id="edge10" class="edge">
<title>Temperature Hold&#45;&gt;Heat</title>
<path fill="none" stroke="#6495ed" d="M98.5163,-598.4907C98.5602,-611.9157 100.3684,-630.1775 108.336,-644.0182 228.0158,-851.9171 323.4057,-860.8355 533.6799,-976.291 549.7064,-985.0907 568.687,-992.2019 584.9204,-997.4071"/>
<polygon fill="#6495ed" stroke="#6495ed" points="584.0347,-1000.7966 594.6221,-1000.3998 586.0981,-994.1076 584.0347,-1000.7966"/>
</g>
<!-- Temperature Hold&#45;&gt;Temperature -->
<g id="edge13" class="edge">
<title>Temperature Hold&#45;&gt;Temperature</title>
<path fill="none" stroke="#0000ff" d="M174.3302,-589.3829C207.993,-593.8752 248.1613,-599.7918 284.096,-606.5782 507.374,-648.7452 768.6473,-715.5874 887.5047,-746.9698"/>
<polygon fill="#0000ff" stroke="#0000ff" points="886.6246,-750.3573 897.1872,-749.5311 888.4148,-743.59 886.6246,-750.3573"/>
</g>
<!-- Temperature Kill&#45;&gt;Heat -->
<g id="edge11" class="edge">
<title>Temperature Kill&#45;&gt;Heat</title>
<path fill="none" stroke="#1e90ff" d="M295.9754,-585.6517C350.2964,-617.5679 459.8784,-688.4409 525.2701,-775.0079 574.2827,-839.892 603.0331,-933.2686 615.0901,-979.4763"/>
<polygon fill="#1e90ff" stroke="#1e90ff" points="611.7514,-980.5493 617.6054,-989.38 618.536,-978.8261 611.7514,-980.5493"/>
</g>
<!-- /api/sensor/temperature -->
<g id="node18" class="node">
<title>/api/sensor/temperature</title>
<polygon fill="#caff70" stroke="#000000" points="624.1819,-77.9259 624.1819,-113.9259 731.1819,-113.9259 731.1819,-77.9259 624.1819,-77.9259"/>
<text text-anchor="middle" x="677.6819" y="-92.2259" font-family="Times,serif" font-size="14.00" fill="#000000">temperature</text>
</g>
<!-- /api/sensor/temperature&#45;&gt;Temperature -->
<g id="edge15" class="edge">
<title>/api/sensor/temperature&#45;&gt;Temperature</title>
<path fill="none" stroke="#00bfff" d="M696.7125,-114.0515C723.4597,-140.6694 771.7201,-193.0905 796.9709,-247.4371 821.9105,-301.1141 808.485,-320.7079 823.8109,-377.8771 860.4012,-514.3681 918.1572,-673.294 941.7239,-736.4208"/>
<polygon fill="#00bfff" stroke="#00bfff" points="938.5465,-737.9161 945.3324,-746.0526 945.1015,-735.4602 938.5465,-737.9161"/>
</g>
<!-- /api/recipe/list -->
<g id="node19" class="node">
<title>/api/recipe/list</title>
<polygon fill="#caff70" stroke="#000000" points="546.0521,-17.0776 546.0521,-53.0776 600.0521,-53.0776 600.0521,-17.0776 546.0521,-17.0776"/>
<text text-anchor="middle" x="573.0521" y="-31.3776" font-family="Times,serif" font-size="14.00" fill="#000000">list</text>
</g>
<!-- /api/recipe/start -->
<g id="node20" class="node">
<title>/api/recipe/start</title>
<polygon fill="#caff70" stroke="#000000" points="546.0521,-71.0776 546.0521,-107.0776 600.0521,-107.0776 600.0521,-71.0776 546.0521,-71.0776"/>
<text text-anchor="middle" x="573.0521" y="-85.3776" font-family="Times,serif" font-size="14.00" fill="#000000">start</text>
</g>
<!-- /api/recipe/kill -->
<g id="node21" class="node">
<title>/api/recipe/kill</title>
<polygon fill="#caff70" stroke="#000000" points="545.4845,-125.3139 545.4845,-161.3139 599.4845,-161.3139 599.4845,-125.3139 545.4845,-125.3139"/>
<text text-anchor="middle" x="572.4845" y="-139.6139" font-family="Times,serif" font-size="14.00" fill="#000000">kill</text>
</g>
<!-- /api/recipe/kill&#45;&gt;All Kill -->
<g id="edge14" class="edge">
<title>/api/recipe/kill&#45;&gt;All Kill</title>
<path fill="none" stroke="#1e90ff" d="M551.8073,-161.4562C482.4083,-222.3471 257.6931,-419.5133 178.0357,-489.4051"/>
<polygon fill="#1e90ff" stroke="#1e90ff" points="175.5625,-486.9188 170.354,-496.145 180.1792,-492.1806 175.5625,-486.9188"/>
</g>
<!-- /api/recipe/schedule/add -->
<g id="node22" class="node">
<title>/api/recipe/schedule/add</title>
<polygon fill="#caff70" stroke="#000000" points="457.2902,-108.2185 457.2902,-144.2185 511.2902,-144.2185 511.2902,-108.2185 457.2902,-108.2185"/>
<text text-anchor="middle" x="484.2902" y="-122.5185" font-family="Times,serif" font-size="14.00" fill="#000000">add</text>
</g>
<!-- /api/recipe/schedule/delete -->
<g id="node23" class="node">
<title>/api/recipe/schedule/delete</title>
<polygon fill="#caff70" stroke="#000000" points="391.7902,-58.2185 391.7902,-94.2185 452.7902,-94.2185 452.7902,-58.2185 391.7902,-58.2185"/>
<text text-anchor="middle" x="422.2902" y="-72.5185" font-family="Times,serif" font-size="14.00" fill="#000000">delete</text>
</g>
<!-- /api/recipe/schedule/list -->
<g id="node24" class="node">
<title>/api/recipe/schedule/list</title>
<polygon fill="#caff70" stroke="#000000" points="462.2902,-43.2185 462.2902,-79.2185 516.2902,-79.2185 516.2902,-43.2185 462.2902,-43.2185"/>
<text text-anchor="middle" x="489.2902" y="-57.5185" font-family="Times,serif" font-size="14.00" fill="#000000">list</text>
</g>
<!-- /api/settings/time/set -->
<g id="node25" class="node">
<title>/api/settings/time/set</title>
<polygon fill="#caff70" stroke="#000000" points="736.8909,-341.1571 736.8909,-377.1571 790.8909,-377.1571 790.8909,-341.1571 736.8909,-341.1571"/>
<text text-anchor="middle" x="763.8909" y="-355.4571" font-family="Times,serif" font-size="14.00" fill="#000000">set</text>
</g>
<!-- /api/settings/lighting/list -->
<g id="node26" class="node">
<title>/api/settings/lighting/list</title>
<polygon fill="#caff70" stroke="#000000" points="741.8909,-248.1571 741.8909,-284.1571 795.8909,-284.1571 795.8909,-248.1571 741.8909,-248.1571"/>
<text text-anchor="middle" x="768.8909" y="-262.4571" font-family="Times,serif" font-size="14.00" fill="#000000">list</text>
</g>
<!-- /api/settings/lighting/set -->
<g id="node27" class="node">
<title>/api/settings/lighting/set</title>
<polygon fill="#caff70" stroke="#000000" points="681.8909,-198.1571 681.8909,-234.1571 735.8909,-234.1571 735.8909,-198.1571 681.8909,-198.1571"/>
<text text-anchor="middle" x="708.8909" y="-212.4571" font-family="Times,serif" font-size="14.00" fill="#000000">set</text>
</g>
<!-- /api/settings/recipe/set -->
<g id="node28" class="node">
<title>/api/settings/recipe/set</title>
<polygon fill="#caff70" stroke="#000000" points="824.8909,-341.1571 824.8909,-377.1571 878.8909,-377.1571 878.8909,-341.1571 824.8909,-341.1571"/>
<text text-anchor="middle" x="851.8909" y="-355.4571" font-family="Times,serif" font-size="14.00" fill="#000000">set</text>
</g>
</g>
</svg>
