<?xml version="1.0" encoding="UTF-8" standalone="no"?>
<!DOCTYPE svg PUBLIC "-//W3C//DTD SVG 1.1//EN"
 "http://www.w3.org/Graphics/SVG/1.1/DTD/svg11.dtd">
<!-- Generated by graphviz version 2.40.1 (20161225.0304)
 -->
<!-- Title: %3 Pages: 1 -->
<svg width="1305pt" height="1103pt"
 viewBox="0.00 0.00 1305.00 1103.00" xmlns="http://www.w3.org/2000/svg" xmlns:xlink="http://www.w3.org/1999/xlink">
<g id="graph0" class="graph" transform="scale(1 1) rotate(0) translate(4 1099)">
<title>%3</title>
<polygon fill="#ffffff" stroke="transparent" points="-4,4 -4,-1099 1301,-1099 1301,4 -4,4"/>
<g id="clust1" class="cluster">
<title>cluster_key</title>
<polygon fill="none" stroke="#000000" points="839.7381,-840.1409 839.7381,-1095.1409 1296.7381,-1095.1409 1296.7381,-840.1409 839.7381,-840.1409"/>
<text text-anchor="middle" x="1068.2381" y="-1079.9409" font-family="Times,serif" font-size="14.00" fill="#000000">Key</text>
</g>
<g id="clust2" class="cluster">
<title>cluster_doc</title>
<polygon fill="none" stroke="#000000" points="1067.4762,-947.7818 1067.4762,-1063.7818 1288.4762,-1063.7818 1288.4762,-947.7818 1067.4762,-947.7818"/>
</g>
<g id="clust3" class="cluster">
<title>cluster_sub</title>
<polygon fill="none" stroke="#000000" points="847.7866,-847.6918 847.7866,-993.6918 1024.7866,-993.6918 1024.7866,-847.6918 847.7866,-847.6918"/>
</g>
<g id="clust4" class="cluster">
<title>cluster_directives</title>
<polygon fill="none" stroke="#000000" points="560.2381,-839.6409 560.2381,-1023.6409 756.2381,-1023.6409 756.2381,-839.6409 560.2381,-839.6409"/>
<text text-anchor="middle" x="658.2381" y="-1008.4409" font-family="Times,serif" font-size="14.00" fill="#000000">Directives</text>
</g>
<g id="clust5" class="cluster">
<title>cluster_api</title>
<polygon fill="none" stroke="#000000" points=".2381,.3591 .2381,-745.6409 824.2381,-745.6409 824.2381,.3591 .2381,.3591"/>
<text text-anchor="middle" x="412.2381" y="-730.4409" font-family="Times,serif" font-size="14.00" fill="#000000">api</text>
</g>
<g id="clust6" class="cluster">
<title>cluster_action</title>
<polygon fill="none" stroke="#000000" points="520.4762,-487.2818 520.4762,-667.2818 816.4762,-667.2818 816.4762,-487.2818 520.4762,-487.2818"/>
<text text-anchor="middle" x="668.4762" y="-652.0818" font-family="Times,serif" font-size="14.00" fill="#000000">action</text>
</g>
<g id="clust7" class="cluster">
<title>cluster_light</title>
<polygon fill="none" stroke="#000000" points="678.7144,-494.9227 678.7144,-620.9227 808.7144,-620.9227 808.7144,-494.9227 678.7144,-494.9227"/>
<text text-anchor="middle" x="743.7144" y="-605.7227" font-family="Times,serif" font-size="14.00" fill="#000000">light</text>
</g>
<g id="clust8" class="cluster">
<title>cluster_temperature</title>
<polygon fill="none" stroke="#000000" points="528.7144,-509.9227 528.7144,-635.9227 658.7144,-635.9227 658.7144,-509.9227 528.7144,-509.9227"/>
<text text-anchor="middle" x="593.7144" y="-620.7227" font-family="Times,serif" font-size="14.00" fill="#000000">temperature</text>
</g>
<g id="clust9" class="cluster">
<title>cluster_sensor</title>
<polygon fill="none" stroke="#000000" points="71.9762,-487.2818 71.9762,-563.2818 194.9762,-563.2818 194.9762,-487.2818 71.9762,-487.2818"/>
<text text-anchor="middle" x="133.4762" y="-548.0818" font-family="Times,serif" font-size="14.00" fill="#000000">sensor</text>
</g>
<g id="clust10" class="cluster">
<title>cluster_routine</title>
<polygon fill="none" stroke="#000000" points="232.4762,-487.7818 232.4762,-714.7818 462.4762,-714.7818 462.4762,-487.7818 232.4762,-487.7818"/>
<text text-anchor="middle" x="347.4762" y="-699.5818" font-family="Times,serif" font-size="14.00" fill="#000000">routine</text>
</g>
<g id="clust11" class="cluster">
<title>cluster_routine_cook</title>
<polygon fill="none" stroke="#000000" points="240.7144,-495.4227 240.7144,-683.4227 454.7144,-683.4227 454.7144,-495.4227 240.7144,-495.4227"/>
<text text-anchor="middle" x="347.7144" y="-668.2227" font-family="Times,serif" font-size="14.00" fill="#000000">cook</text>
</g>
<g id="clust12" class="cluster">
<title>cluster_schedule</title>
<polygon fill="none" stroke="#000000" points="248.9525,-511.0636 248.9525,-637.0636 378.9525,-637.0636 378.9525,-511.0636 248.9525,-511.0636"/>
<text text-anchor="middle" x="313.9525" y="-621.8636" font-family="Times,serif" font-size="14.00" fill="#000000">schedule</text>
</g>
<g id="clust13" class="cluster">
<title>cluster_settings</title>
<polygon fill="none" stroke="#000000" points="8.4762,-7.2818 8.4762,-435.2818 538.4762,-435.2818 538.4762,-7.2818 8.4762,-7.2818"/>
<text text-anchor="middle" x="273.4762" y="-420.0818" font-family="Times,serif" font-size="14.00" fill="#000000">settings</text>
</g>
<g id="clust14" class="cluster">
<title>cluster_time</title>
<polygon fill="none" stroke="#000000" points="400.7144,-182.9227 400.7144,-258.9227 470.7144,-258.9227 470.7144,-182.9227 400.7144,-182.9227"/>
<text text-anchor="middle" x="435.7144" y="-243.7227" font-family="Times,serif" font-size="14.00" fill="#000000">time</text>
</g>
<g id="clust15" class="cluster">
<title>cluster_lighting</title>
<polygon fill="none" stroke="#000000" points="400.7144,-14.9227 400.7144,-140.9227 530.7144,-140.9227 530.7144,-14.9227 400.7144,-14.9227"/>
<text text-anchor="middle" x="465.7144" y="-125.7227" font-family="Times,serif" font-size="14.00" fill="#000000">lighting</text>
</g>
<g id="clust16" class="cluster">
<title>cluster_settings_cook</title>
<polygon fill="none" stroke="#000000" points="16.7144,-63.4227 16.7144,-404.4227 354.7144,-404.4227 354.7144,-63.4227 16.7144,-63.4227"/>
<text text-anchor="middle" x="185.7144" y="-389.2227" font-family="Times,serif" font-size="14.00" fill="#000000">cook</text>
</g>
<g id="clust17" class="cluster">
<title>cluster_warm</title>
<polygon fill="none" stroke="#000000" points="24.4525,-71.0636 24.4525,-213.0636 201.4525,-213.0636 201.4525,-71.0636 24.4525,-71.0636"/>
<text text-anchor="middle" x="112.9525" y="-197.8636" font-family="Times,serif" font-size="14.00" fill="#000000">warm</text>
</g>
<g id="clust18" class="cluster">
<title>cluster_recipe</title>
<polygon fill="none" stroke="#000000" points="216.9525,-247.0636 216.9525,-373.0636 346.9525,-373.0636 346.9525,-247.0636 216.9525,-247.0636"/>
<text text-anchor="middle" x="281.9525" y="-357.8636" font-family="Times,serif" font-size="14.00" fill="#000000">recipe</text>
</g>
<!-- Done -->
<g id="node1" class="node">
<title>Done</title>
<polygon fill="#7fff00" stroke="#000000" points="1103.7144,-1019.4227 1103.7144,-1055.4227 1157.7144,-1055.4227 1157.7144,-1019.4227 1103.7144,-1019.4227"/>
<text text-anchor="middle" x="1130.7144" y="-1033.7227" font-family="Times,serif" font-size="14.00" fill="#000000">Done</text>
</g>
<!-- Documented -->
<g id="node2" class="node">
<title>Documented</title>
<polygon fill="#caff70" stroke="#000000" points="1173.2144,-1005.4227 1173.2144,-1041.4227 1280.2144,-1041.4227 1280.2144,-1005.4227 1173.2144,-1005.4227"/>
<text text-anchor="middle" x="1226.7144" y="-1019.7227" font-family="Times,serif" font-size="14.00" fill="#000000">Documented</text>
</g>
<!-- Undocumented -->
<g id="node3" class="node">
<title>Undocumented</title>
<polygon fill="#ff6347" stroke="#000000" points="1075.7144,-956.4227 1075.7144,-992.4227 1201.7144,-992.4227 1201.7144,-956.4227 1075.7144,-956.4227"/>
<text text-anchor="middle" x="1138.7144" y="-970.7227" font-family="Times,serif" font-size="14.00" fill="#000000">Undocumented</text>
</g>
<!-- Depend on value -->
<g id="node4" class="node">
<title>Depend on value</title>
<polygon fill="transparent" stroke="#000000" points="881.0548,-949.3938 881.0548,-985.3938 1017.0548,-985.3938 1017.0548,-949.3938 881.0548,-949.3938"/>
<text text-anchor="middle" x="949.0548" y="-963.6938" font-family="Times,serif" font-size="14.00" fill="#000000">Depend on value</text>
</g>
<!-- Node -->
<g id="node7" class="node">
<title>Node</title>
<polygon fill="transparent" stroke="#000000" points="1032.799,-884.1636 1032.799,-920.1636 1087.799,-920.1636 1087.799,-884.1636 1032.799,-884.1636"/>
<text text-anchor="middle" x="1060.299" y="-898.4636" font-family="Times,serif" font-size="14.00" fill="#000000">Node</text>
</g>
<!-- Depend on value&#45;&gt;Node -->
<g id="edge1" class="edge">
<title>Depend on value&#45;&gt;Node</title>
<path fill="none" stroke="#0000ff" d="M980.0425,-949.2236C993.5434,-941.3071 1009.4707,-931.9678 1023.5628,-923.7046"/>
<polygon fill="#0000ff" stroke="#0000ff" points="1025.6584,-926.5332 1032.5144,-918.4557 1022.1176,-920.4947 1025.6584,-926.5332"/>
</g>
<!-- Proxy to value -->
<g id="node5" class="node">
<title>Proxy to value</title>
<polygon fill="transparent" stroke="#000000" points="866.7255,-904.3893 866.7255,-940.3893 985.7255,-940.3893 985.7255,-904.3893 866.7255,-904.3893"/>
<text text-anchor="middle" x="926.2255" y="-918.6893" font-family="Times,serif" font-size="14.00" fill="#000000">Proxy to value</text>
</g>
<!-- Proxy to value&#45;&gt;Node -->
<g id="edge2" class="edge">
<title>Proxy to value&#45;&gt;Node</title>
<path fill="none" stroke="#00bfff" d="M985.8129,-913.4002C998.3426,-911.5101 1011.2237,-909.5669 1022.6762,-907.8392"/>
<polygon fill="#00bfff" stroke="#00bfff" points="1023.3751,-911.2735 1032.7411,-906.3209 1022.3309,-904.3518 1023.3751,-911.2735"/>
</g>
<!-- Depend on function -->
<g id="node6" class="node">
<title>Depend on function</title>
<polygon fill="transparent" stroke="#000000" points="855.9052,-855.7921 855.9052,-891.7921 1012.9052,-891.7921 1012.9052,-855.7921 855.9052,-855.7921"/>
<text text-anchor="middle" x="934.4052" y="-870.0921" font-family="Times,serif" font-size="14.00" fill="#000000">Depend on function</text>
</g>
<!-- Depend on function&#45;&gt;Node -->
<g id="edge3" class="edge">
<title>Depend on function&#45;&gt;Node</title>
<path fill="none" stroke="#6495ed" d="M1013.0626,-891.5184C1016.4331,-892.278 1019.7394,-893.0231 1022.9394,-893.7442"/>
<polygon fill="#6495ed" stroke="#6495ed" points="1022.2216,-897.1702 1032.7465,-895.9544 1023.7606,-890.3414 1022.2216,-897.1702"/>
</g>
<!-- Sleep -->
<g id="node8" class="node">
<title>Sleep</title>
<polygon fill="#caff70" stroke="#000000" points="652.4762,-938.2818 652.4762,-974.2818 708.4762,-974.2818 708.4762,-938.2818 652.4762,-938.2818"/>
<text text-anchor="middle" x="680.4762" y="-952.5818" font-family="Times,serif" font-size="14.00" fill="#000000">Sleep</text>
</g>
<!-- Heat -->
<g id="node9" class="node">
<title>Heat</title>
<polygon fill="#caff70" stroke="#000000" points="694.4762,-848.2818 694.4762,-884.2818 748.4762,-884.2818 748.4762,-848.2818 694.4762,-848.2818"/>
<text text-anchor="middle" x="721.4762" y="-862.5818" font-family="Times,serif" font-size="14.00" fill="#000000">Heat</text>
</g>
<!-- Cool -->
<g id="node10" class="node">
<title>Cool</title>
<polygon fill="#caff70" stroke="#000000" points="586.4762,-956.2818 586.4762,-992.2818 640.4762,-992.2818 640.4762,-956.2818 586.4762,-956.2818"/>
<text text-anchor="middle" x="613.4762" y="-970.5818" font-family="Times,serif" font-size="14.00" fill="#000000">Cool</text>
</g>
<!-- Temperature -->
<g id="node11" class="node">
<title>Temperature</title>
<polygon fill="#caff70" stroke="#000000" points="568.4762,-890.2818 568.4762,-926.2818 678.4762,-926.2818 678.4762,-890.2818 568.4762,-890.2818"/>
<text text-anchor="middle" x="623.4762" y="-904.5818" font-family="Times,serif" font-size="14.00" fill="#000000">Temperature</text>
</g>
<!-- Temperature&#45;&gt;Sleep -->
<g id="edge4" class="edge">
<title>Temperature&#45;&gt;Sleep</title>
<path fill="none" stroke="#6495ed" d="M645.0255,-926.4285C647.0116,-928.1011 649.0458,-929.814 651.086,-931.5321"/>
<polygon fill="#6495ed" stroke="#6495ed" points="648.9929,-934.3452 658.8965,-938.1094 653.5019,-928.9908 648.9929,-934.3452"/>
</g>
<!-- Temperature&#45;&gt;Heat -->
<g id="edge5" class="edge">
<title>Temperature&#45;&gt;Heat</title>
<path fill="none" stroke="#6495ed" d="M665.6058,-890.2262C672.0062,-887.4832 678.5662,-884.6718 684.8371,-881.9843"/>
<polygon fill="#6495ed" stroke="#6495ed" points="686.5764,-885.0468 694.3892,-877.8905 683.819,-878.6128 686.5764,-885.0468"/>
</g>
<!-- Temperature&#45;&gt;Cool -->
<g id="edge6" class="edge">
<title>Temperature&#45;&gt;Cool</title>
<path fill="none" stroke="#6495ed" d="M620.7437,-926.3166C619.8177,-932.428 618.7601,-939.4083 617.7438,-946.1161"/>
<polygon fill="#6495ed" stroke="#6495ed" points="614.2431,-945.8573 616.2055,-956.2688 621.1641,-946.906 614.2431,-945.8573"/>
</g>
<!-- /api/action/light/kill -->
<g id="node12" class="node">
<title>/api/action/light/kill</title>
<polygon fill="#caff70" stroke="#000000" points="686.9525,-503.5636 686.9525,-539.5636 740.9525,-539.5636 740.9525,-503.5636 686.9525,-503.5636"/>
<text text-anchor="middle" x="713.9525" y="-517.8636" font-family="Times,serif" font-size="14.00" fill="#000000">kill</text>
</g>
<!-- /api/action/light/set -->
<g id="node13" class="node">
<title>/api/action/light/set</title>
<polygon fill="#caff70" stroke="#000000" points="746.9525,-553.5636 746.9525,-589.5636 800.9525,-589.5636 800.9525,-553.5636 746.9525,-553.5636"/>
<text text-anchor="middle" x="773.9525" y="-567.8636" font-family="Times,serif" font-size="14.00" fill="#000000">set</text>
</g>
<!-- /api/action/temperature/kill -->
<g id="node14" class="node">
<title>/api/action/temperature/kill</title>
<polygon fill="#caff70" stroke="#000000" points="596.9525,-568.5636 596.9525,-604.5636 650.9525,-604.5636 650.9525,-568.5636 596.9525,-568.5636"/>
<text text-anchor="middle" x="623.9525" y="-582.8636" font-family="Times,serif" font-size="14.00" fill="#000000">kill</text>
</g>
<!-- /api/action/temperature/set -->
<g id="node15" class="node">
<title>/api/action/temperature/set</title>
<polygon fill="#caff70" stroke="#000000" points="536.9525,-518.5636 536.9525,-554.5636 590.9525,-554.5636 590.9525,-518.5636 536.9525,-518.5636"/>
<text text-anchor="middle" x="563.9525" y="-532.8636" font-family="Times,serif" font-size="14.00" fill="#000000">set</text>
</g>
<!-- /api/sensor/temperature -->
<g id="node16" class="node">
<title>/api/sensor/temperature</title>
<polygon fill="#caff70" stroke="#000000" points="79.7144,-495.9227 79.7144,-531.9227 186.7144,-531.9227 186.7144,-495.9227 79.7144,-495.9227"/>
<text text-anchor="middle" x="133.2144" y="-510.2227" font-family="Times,serif" font-size="14.00" fill="#000000">temperature</text>
</g>
<!-- /api/routine/cook/list -->
<g id="node17" class="node">
<title>/api/routine/cook/list</title>
<polygon fill="#caff70" stroke="#000000" points="392.9525,-560.0636 392.9525,-596.0636 446.9525,-596.0636 446.9525,-560.0636 392.9525,-560.0636"/>
<text text-anchor="middle" x="419.9525" y="-574.3636" font-family="Times,serif" font-size="14.00" fill="#000000">list</text>
</g>
<!-- /api/settings/cook/recipe/list -->
<g id="node28" class="node">
<title>/api/settings/cook/recipe/list</title>
<polygon fill="#caff70" stroke="#000000" points="225.1906,-255.7044 225.1906,-291.7044 279.1906,-291.7044 279.1906,-255.7044 225.1906,-255.7044"/>
<text text-anchor="middle" x="252.1906" y="-270.0044" font-family="Times,serif" font-size="14.00" fill="#000000">list</text>
</g>
<!-- /api/routine/cook/list&#45;&gt;/api/settings/cook/recipe/list -->
<g id="edge7" class="edge">
<title>/api/routine/cook/list&#45;&gt;/api/settings/cook/recipe/list</title>
<path fill="none" stroke="#00bfff" d="M405.4001,-559.867C400.8734,-553.9173 395.993,-547.1894 391.8725,-540.7836 337.5958,-456.4034 329.2126,-432.0446 284.1106,-342.4244 277.3247,-328.9406 270.2089,-313.7375 264.4223,-301.0656"/>
<polygon fill="#00bfff" stroke="#00bfff" points="267.6013,-299.6011 260.2839,-291.9392 261.2261,-302.492 267.6013,-299.6011"/>
</g>
<!-- /api/routine/cook/start -->
<g id="node18" class="node">
<title>/api/routine/cook/start</title>
<polygon fill="#caff70" stroke="#000000" points="392.9525,-616.0636 392.9525,-652.0636 446.9525,-652.0636 446.9525,-616.0636 392.9525,-616.0636"/>
<text text-anchor="middle" x="419.9525" y="-630.3636" font-family="Times,serif" font-size="14.00" fill="#000000">start</text>
</g>
<!-- /api/routine/cook/kill -->
<g id="node19" class="node">
<title>/api/routine/cook/kill</title>
<polygon fill="#caff70" stroke="#000000" points="392.9525,-504.0636 392.9525,-540.0636 446.9525,-540.0636 446.9525,-504.0636 392.9525,-504.0636"/>
<text text-anchor="middle" x="419.9525" y="-518.3636" font-family="Times,serif" font-size="14.00" fill="#000000">kill</text>
</g>
<!-- /api/routine/cook/schedule/list -->
<g id="node20" class="node">
<title>/api/routine/cook/schedule/list</title>
<polygon fill="#caff70" stroke="#000000" points="317.1906,-569.7044 317.1906,-605.7044 371.1906,-605.7044 371.1906,-569.7044 317.1906,-569.7044"/>
<text text-anchor="middle" x="344.1906" y="-584.0044" font-family="Times,serif" font-size="14.00" fill="#000000">list</text>
</g>
<!-- /api/routine/cook/schedule/set -->
<g id="node21" class="node">
<title>/api/routine/cook/schedule/set</title>
<polygon fill="#caff70" stroke="#000000" points="257.1906,-519.7044 257.1906,-555.7044 311.1906,-555.7044 311.1906,-519.7044 257.1906,-519.7044"/>
<text text-anchor="middle" x="284.1906" y="-534.0044" font-family="Times,serif" font-size="14.00" fill="#000000">set</text>
</g>
<!-- /api/settings/time/set -->
<g id="node22" class="node">
<title>/api/settings/time/set</title>
<polygon fill="#caff70" stroke="#000000" points="408.9525,-191.5636 408.9525,-227.5636 462.9525,-227.5636 462.9525,-191.5636 408.9525,-191.5636"/>
<text text-anchor="middle" x="435.9525" y="-205.8636" font-family="Times,serif" font-size="14.00" fill="#000000">set</text>
</g>
<!-- /api/settings/lighting/list -->
<g id="node23" class="node">
<title>/api/settings/lighting/list</title>
<polygon fill="#caff70" stroke="#000000" points="468.9525,-73.5636 468.9525,-109.5636 522.9525,-109.5636 522.9525,-73.5636 468.9525,-73.5636"/>
<text text-anchor="middle" x="495.9525" y="-87.8636" font-family="Times,serif" font-size="14.00" fill="#000000">list</text>
</g>
<!-- /api/settings/lighting/set -->
<g id="node24" class="node">
<title>/api/settings/lighting/set</title>
<polygon fill="#caff70" stroke="#000000" points="408.9525,-23.5636 408.9525,-59.5636 462.9525,-59.5636 462.9525,-23.5636 408.9525,-23.5636"/>
<text text-anchor="middle" x="435.9525" y="-37.8636" font-family="Times,serif" font-size="14.00" fill="#000000">set</text>
</g>
<!-- /api/settings/cook/warm/temperature -->
<g id="node25" class="node">
<title>/api/settings/cook/warm/temperature</title>
<polygon fill="#caff70" stroke="#000000" points="32.1906,-79.7044 32.1906,-115.7044 139.1906,-115.7044 139.1906,-79.7044 32.1906,-79.7044"/>
<text text-anchor="middle" x="85.6906" y="-94.0044" font-family="Times,serif" font-size="14.00" fill="#000000">temperature</text>
</g>
<!-- /api/settings/cook/warm/set -->
<g id="node26" class="node">
<title>/api/settings/cook/warm/set</title>
<polygon fill="#caff70" stroke="#000000" points="50.6906,-145.7044 50.6906,-181.7044 104.6906,-181.7044 104.6906,-145.7044 50.6906,-145.7044"/>
<text text-anchor="middle" x="77.6906" y="-160.0044" font-family="Times,serif" font-size="14.00" fill="#000000">set</text>
</g>
<!-- /api/settings/cook/warm/duration -->
<g id="node27" class="node">
<title>/api/settings/cook/warm/duration</title>
<polygon fill="#caff70" stroke="#000000" points="116.1906,-127.7044 116.1906,-163.7044 193.1906,-163.7044 193.1906,-127.7044 116.1906,-127.7044"/>
<text text-anchor="middle" x="154.6906" y="-142.0044" font-family="Times,serif" font-size="14.00" fill="#000000">duration</text>
</g>
<!-- /api/settings/cook/recipe/set -->
<g id="node29" class="node">
<title>/api/settings/cook/recipe/set</title>
<polygon fill="#caff70" stroke="#000000" points="285.1906,-305.7044 285.1906,-341.7044 339.1906,-341.7044 339.1906,-305.7044 285.1906,-305.7044"/>
<text text-anchor="middle" x="312.1906" y="-320.0044" font-family="Times,serif" font-size="14.00" fill="#000000">set</text>
</g>
</g>
</svg>
