<?xml version="1.0" encoding="UTF-8" standalone="no"?>
<!DOCTYPE svg PUBLIC "-//W3C//DTD SVG 1.1//EN"
 "http://www.w3.org/Graphics/SVG/1.1/DTD/svg11.dtd">
<!-- Generated by graphviz version 2.40.1 (20161225.0304)
 -->
<!-- Title: %3 Pages: 1 -->
<svg width="1329pt" height="1073pt"
 viewBox="0.00 0.00 1329.00 1073.00" xmlns="http://www.w3.org/2000/svg" xmlns:xlink="http://www.w3.org/1999/xlink">
<g id="graph0" class="graph" transform="scale(1 1) rotate(0) translate(4 1069)">
<title>%3</title>
<polygon fill="#ffffff" stroke="transparent" points="-4,4 -4,-1069 1325,-1069 1325,4 -4,4"/>
<g id="clust1" class="cluster">
<title>cluster_key</title>
<polygon fill="none" stroke="#000000" points="863.7381,-810.1409 863.7381,-1065.1409 1320.7381,-1065.1409 1320.7381,-810.1409 863.7381,-810.1409"/>
<text text-anchor="middle" x="1092.2381" y="-1049.9409" font-family="Times,serif" font-size="14.00" fill="#000000">Key</text>
</g>
<g id="clust2" class="cluster">
<title>cluster_doc</title>
<polygon fill="none" stroke="#000000" points="1091.4762,-917.7818 1091.4762,-1033.7818 1312.4762,-1033.7818 1312.4762,-917.7818 1091.4762,-917.7818"/>
</g>
<g id="clust3" class="cluster">
<title>cluster_sub</title>
<polygon fill="none" stroke="#000000" points="871.7866,-817.6918 871.7866,-963.6918 1048.7866,-963.6918 1048.7866,-817.6918 871.7866,-817.6918"/>
</g>
<g id="clust4" class="cluster">
<title>cluster_directives</title>
<polygon fill="none" stroke="#000000" points="594.2381,-809.6409 594.2381,-993.6409 790.2381,-993.6409 790.2381,-809.6409 594.2381,-809.6409"/>
<text text-anchor="middle" x="692.2381" y="-978.4409" font-family="Times,serif" font-size="14.00" fill="#000000">Directives</text>
</g>
<g id="clust5" class="cluster">
<title>cluster_api</title>
<polygon fill="none" stroke="#000000" points=".2381,.3591 .2381,-699.6409 808.2381,-699.6409 808.2381,.3591 .2381,.3591"/>
<text text-anchor="middle" x="404.2381" y="-684.4409" font-family="Times,serif" font-size="14.00" fill="#000000">api</text>
</g>
<g id="clust6" class="cluster">
<title>cluster_action</title>
<polygon fill="none" stroke="#000000" points="504.4762,-441.2818 504.4762,-621.2818 800.4762,-621.2818 800.4762,-441.2818 504.4762,-441.2818"/>
<text text-anchor="middle" x="652.4762" y="-606.0818" font-family="Times,serif" font-size="14.00" fill="#000000">action</text>
</g>
<g id="clust7" class="cluster">
<title>cluster_light</title>
<polygon fill="none" stroke="#000000" points="662.7144,-448.9227 662.7144,-574.9227 792.7144,-574.9227 792.7144,-448.9227 662.7144,-448.9227"/>
<text text-anchor="middle" x="727.7144" y="-559.7227" font-family="Times,serif" font-size="14.00" fill="#000000">light</text>
</g>
<g id="clust8" class="cluster">
<title>cluster_temperature</title>
<polygon fill="none" stroke="#000000" points="512.7144,-463.9227 512.7144,-589.9227 642.7144,-589.9227 642.7144,-463.9227 512.7144,-463.9227"/>
<text text-anchor="middle" x="577.7144" y="-574.7227" font-family="Times,serif" font-size="14.00" fill="#000000">temperature</text>
</g>
<g id="clust9" class="cluster">
<title>cluster_sensor</title>
<polygon fill="none" stroke="#000000" points="38.9762,-441.2818 38.9762,-517.2818 161.9762,-517.2818 161.9762,-441.2818 38.9762,-441.2818"/>
<text text-anchor="middle" x="100.4762" y="-502.0818" font-family="Times,serif" font-size="14.00" fill="#000000">sensor</text>
</g>
<g id="clust10" class="cluster">
<title>cluster_routine</title>
<polygon fill="none" stroke="#000000" points="225.4762,-441.7818 225.4762,-668.7818 455.4762,-668.7818 455.4762,-441.7818 225.4762,-441.7818"/>
<text text-anchor="middle" x="340.4762" y="-653.5818" font-family="Times,serif" font-size="14.00" fill="#000000">routine</text>
</g>
<g id="clust11" class="cluster">
<title>cluster_routine_cook</title>
<polygon fill="none" stroke="#000000" points="233.7144,-449.4227 233.7144,-637.4227 447.7144,-637.4227 447.7144,-449.4227 233.7144,-449.4227"/>
<text text-anchor="middle" x="340.7144" y="-622.2227" font-family="Times,serif" font-size="14.00" fill="#000000">cook</text>
</g>
<g id="clust12" class="cluster">
<title>cluster_schedule</title>
<polygon fill="none" stroke="#000000" points="241.9525,-465.0636 241.9525,-591.0636 371.9525,-591.0636 371.9525,-465.0636 241.9525,-465.0636"/>
<text text-anchor="middle" x="306.9525" y="-575.8636" font-family="Times,serif" font-size="14.00" fill="#000000">schedule</text>
</g>
<g id="clust13" class="cluster">
<title>cluster_settings</title>
<polygon fill="none" stroke="#000000" points="8.4762,-7.2818 8.4762,-387.2818 522.4762,-387.2818 522.4762,-7.2818 8.4762,-7.2818"/>
<text text-anchor="middle" x="265.4762" y="-372.0818" font-family="Times,serif" font-size="14.00" fill="#000000">settings</text>
</g>
<g id="clust14" class="cluster">
<title>cluster_lighting</title>
<polygon fill="none" stroke="#000000" points="384.7144,-14.9227 384.7144,-140.9227 514.7144,-140.9227 514.7144,-14.9227 384.7144,-14.9227"/>
<text text-anchor="middle" x="449.7144" y="-125.7227" font-family="Times,serif" font-size="14.00" fill="#000000">lighting</text>
</g>
<g id="clust15" class="cluster">
<title>cluster_settings_cook</title>
<polygon fill="none" stroke="#000000" points="16.7144,-15.4227 16.7144,-356.4227 354.7144,-356.4227 354.7144,-15.4227 16.7144,-15.4227"/>
<text text-anchor="middle" x="185.7144" y="-341.2227" font-family="Times,serif" font-size="14.00" fill="#000000">cook</text>
</g>
<g id="clust16" class="cluster">
<title>cluster_warm</title>
<polygon fill="none" stroke="#000000" points="24.4525,-23.0636 24.4525,-165.0636 201.4525,-165.0636 201.4525,-23.0636 24.4525,-23.0636"/>
<text text-anchor="middle" x="112.9525" y="-149.8636" font-family="Times,serif" font-size="14.00" fill="#000000">warm</text>
</g>
<g id="clust17" class="cluster">
<title>cluster_recipe</title>
<polygon fill="none" stroke="#000000" points="216.9525,-199.0636 216.9525,-325.0636 346.9525,-325.0636 346.9525,-199.0636 216.9525,-199.0636"/>
<text text-anchor="middle" x="281.9525" y="-309.8636" font-family="Times,serif" font-size="14.00" fill="#000000">recipe</text>
</g>
<!-- Done -->
<g id="node1" class="node">
<title>Done</title>
<polygon fill="#7fff00" stroke="#000000" points="1127.7144,-989.4227 1127.7144,-1025.4227 1181.7144,-1025.4227 1181.7144,-989.4227 1127.7144,-989.4227"/>
<text text-anchor="middle" x="1154.7144" y="-1003.7227" font-family="Times,serif" font-size="14.00" fill="#000000">Done</text>
</g>
<!-- Documented -->
<g id="node2" class="node">
<title>Documented</title>
<polygon fill="#caff70" stroke="#000000" points="1197.2144,-975.4227 1197.2144,-1011.4227 1304.2144,-1011.4227 1304.2144,-975.4227 1197.2144,-975.4227"/>
<text text-anchor="middle" x="1250.7144" y="-989.7227" font-family="Times,serif" font-size="14.00" fill="#000000">Documented</text>
</g>
<!-- Undocumented -->
<g id="node3" class="node">
<title>Undocumented</title>
<polygon fill="#ff6347" stroke="#000000" points="1099.7144,-926.4227 1099.7144,-962.4227 1225.7144,-962.4227 1225.7144,-926.4227 1099.7144,-926.4227"/>
<text text-anchor="middle" x="1162.7144" y="-940.7227" font-family="Times,serif" font-size="14.00" fill="#000000">Undocumented</text>
</g>
<!-- Depend on value -->
<g id="node4" class="node">
<title>Depend on value</title>
<polygon fill="transparent" stroke="#000000" points="905.0548,-919.3938 905.0548,-955.3938 1041.0548,-955.3938 1041.0548,-919.3938 905.0548,-919.3938"/>
<text text-anchor="middle" x="973.0548" y="-933.6938" font-family="Times,serif" font-size="14.00" fill="#000000">Depend on value</text>
</g>
<!-- Node -->
<g id="node7" class="node">
<title>Node</title>
<polygon fill="transparent" stroke="#000000" points="1056.799,-854.1636 1056.799,-890.1636 1111.799,-890.1636 1111.799,-854.1636 1056.799,-854.1636"/>
<text text-anchor="middle" x="1084.299" y="-868.4636" font-family="Times,serif" font-size="14.00" fill="#000000">Node</text>
</g>
<!-- Depend on value&#45;&gt;Node -->
<g id="edge1" class="edge">
<title>Depend on value&#45;&gt;Node</title>
<path fill="none" stroke="#0000ff" d="M1004.0425,-919.2236C1017.5434,-911.3071 1033.4707,-901.9678 1047.5628,-893.7046"/>
<polygon fill="#0000ff" stroke="#0000ff" points="1049.6584,-896.5332 1056.5144,-888.4557 1046.1176,-890.4947 1049.6584,-896.5332"/>
</g>
<!-- Proxy to value -->
<g id="node5" class="node">
<title>Proxy to value</title>
<polygon fill="transparent" stroke="#000000" points="890.7255,-874.3893 890.7255,-910.3893 1009.7255,-910.3893 1009.7255,-874.3893 890.7255,-874.3893"/>
<text text-anchor="middle" x="950.2255" y="-888.6893" font-family="Times,serif" font-size="14.00" fill="#000000">Proxy to value</text>
</g>
<!-- Proxy to value&#45;&gt;Node -->
<g id="edge2" class="edge">
<title>Proxy to value&#45;&gt;Node</title>
<path fill="none" stroke="#00bfff" d="M1009.8129,-883.4002C1022.3426,-881.5101 1035.2237,-879.5669 1046.6762,-877.8392"/>
<polygon fill="#00bfff" stroke="#00bfff" points="1047.3751,-881.2735 1056.7411,-876.3209 1046.3309,-874.3518 1047.3751,-881.2735"/>
</g>
<!-- Depend on function -->
<g id="node6" class="node">
<title>Depend on function</title>
<polygon fill="transparent" stroke="#000000" points="879.9052,-825.7921 879.9052,-861.7921 1036.9052,-861.7921 1036.9052,-825.7921 879.9052,-825.7921"/>
<text text-anchor="middle" x="958.4052" y="-840.0921" font-family="Times,serif" font-size="14.00" fill="#000000">Depend on function</text>
</g>
<!-- Depend on function&#45;&gt;Node -->
<g id="edge3" class="edge">
<title>Depend on function&#45;&gt;Node</title>
<path fill="none" stroke="#6495ed" d="M1037.0626,-861.5184C1040.4331,-862.278 1043.7394,-863.0231 1046.9394,-863.7442"/>
<polygon fill="#6495ed" stroke="#6495ed" points="1046.2216,-867.1702 1056.7465,-865.9544 1047.7606,-860.3414 1046.2216,-867.1702"/>
</g>
<!-- Sleep -->
<g id="node8" class="node">
<title>Sleep</title>
<polygon fill="#caff70" stroke="#000000" points="686.4762,-908.2818 686.4762,-944.2818 742.4762,-944.2818 742.4762,-908.2818 686.4762,-908.2818"/>
<text text-anchor="middle" x="714.4762" y="-922.5818" font-family="Times,serif" font-size="14.00" fill="#000000">Sleep</text>
</g>
<!-- Heat -->
<g id="node9" class="node">
<title>Heat</title>
<polygon fill="#caff70" stroke="#000000" points="728.4762,-818.2818 728.4762,-854.2818 782.4762,-854.2818 782.4762,-818.2818 728.4762,-818.2818"/>
<text text-anchor="middle" x="755.4762" y="-832.5818" font-family="Times,serif" font-size="14.00" fill="#000000">Heat</text>
</g>
<!-- Cool -->
<g id="node10" class="node">
<title>Cool</title>
<polygon fill="#caff70" stroke="#000000" points="620.4762,-926.2818 620.4762,-962.2818 674.4762,-962.2818 674.4762,-926.2818 620.4762,-926.2818"/>
<text text-anchor="middle" x="647.4762" y="-940.5818" font-family="Times,serif" font-size="14.00" fill="#000000">Cool</text>
</g>
<!-- Temperature -->
<g id="node11" class="node">
<title>Temperature</title>
<polygon fill="#caff70" stroke="#000000" points="602.4762,-860.2818 602.4762,-896.2818 712.4762,-896.2818 712.4762,-860.2818 602.4762,-860.2818"/>
<text text-anchor="middle" x="657.4762" y="-874.5818" font-family="Times,serif" font-size="14.00" fill="#000000">Temperature</text>
</g>
<!-- Temperature&#45;&gt;Sleep -->
<g id="edge4" class="edge">
<title>Temperature&#45;&gt;Sleep</title>
<path fill="none" stroke="#6495ed" d="M679.0255,-896.4285C681.0116,-898.1011 683.0458,-899.814 685.086,-901.5321"/>
<polygon fill="#6495ed" stroke="#6495ed" points="682.9929,-904.3452 692.8965,-908.1094 687.5019,-898.9908 682.9929,-904.3452"/>
</g>
<!-- Temperature&#45;&gt;Heat -->
<g id="edge5" class="edge">
<title>Temperature&#45;&gt;Heat</title>
<path fill="none" stroke="#6495ed" d="M699.6058,-860.2262C706.0062,-857.4832 712.5662,-854.6718 718.8371,-851.9843"/>
<polygon fill="#6495ed" stroke="#6495ed" points="720.5764,-855.0468 728.3892,-847.8905 717.819,-848.6128 720.5764,-855.0468"/>
</g>
<!-- Temperature&#45;&gt;Cool -->
<g id="edge6" class="edge">
<title>Temperature&#45;&gt;Cool</title>
<path fill="none" stroke="#6495ed" d="M654.7437,-896.3166C653.8177,-902.428 652.7601,-909.4083 651.7438,-916.1161"/>
<polygon fill="#6495ed" stroke="#6495ed" points="648.2431,-915.8573 650.2055,-926.2688 655.1641,-916.906 648.2431,-915.8573"/>
</g>
<!-- /api/action/light/kill -->
<g id="node12" class="node">
<title>/api/action/light/kill</title>
<polygon fill="#caff70" stroke="#000000" points="670.9525,-457.5636 670.9525,-493.5636 724.9525,-493.5636 724.9525,-457.5636 670.9525,-457.5636"/>
<text text-anchor="middle" x="697.9525" y="-471.8636" font-family="Times,serif" font-size="14.00" fill="#000000">kill</text>
</g>
<!-- /api/action/light/set -->
<g id="node13" class="node">
<title>/api/action/light/set</title>
<polygon fill="#caff70" stroke="#000000" points="730.9525,-507.5636 730.9525,-543.5636 784.9525,-543.5636 784.9525,-507.5636 730.9525,-507.5636"/>
<text text-anchor="middle" x="757.9525" y="-521.8636" font-family="Times,serif" font-size="14.00" fill="#000000">set</text>
</g>
<!-- /api/action/temperature/kill -->
<g id="node14" class="node">
<title>/api/action/temperature/kill</title>
<polygon fill="#caff70" stroke="#000000" points="580.9525,-522.5636 580.9525,-558.5636 634.9525,-558.5636 634.9525,-522.5636 580.9525,-522.5636"/>
<text text-anchor="middle" x="607.9525" y="-536.8636" font-family="Times,serif" font-size="14.00" fill="#000000">kill</text>
</g>
<!-- /api/action/temperature/set -->
<g id="node15" class="node">
<title>/api/action/temperature/set</title>
<polygon fill="#caff70" stroke="#000000" points="520.9525,-472.5636 520.9525,-508.5636 574.9525,-508.5636 574.9525,-472.5636 520.9525,-472.5636"/>
<text text-anchor="middle" x="547.9525" y="-486.8636" font-family="Times,serif" font-size="14.00" fill="#000000">set</text>
</g>
<!-- /api/sensor/temperature -->
<g id="node16" class="node">
<title>/api/sensor/temperature</title>
<polygon fill="#caff70" stroke="#000000" points="46.7144,-449.9227 46.7144,-485.9227 153.7144,-485.9227 153.7144,-449.9227 46.7144,-449.9227"/>
<text text-anchor="middle" x="100.2144" y="-464.2227" font-family="Times,serif" font-size="14.00" fill="#000000">temperature</text>
</g>
<!-- /api/routine/cook/list -->
<g id="node17" class="node">
<title>/api/routine/cook/list</title>
<polygon fill="#caff70" stroke="#000000" points="385.9525,-514.0636 385.9525,-550.0636 439.9525,-550.0636 439.9525,-514.0636 385.9525,-514.0636"/>
<text text-anchor="middle" x="412.9525" y="-528.3636" font-family="Times,serif" font-size="14.00" fill="#000000">list</text>
</g>
<!-- /api/settings/cook/recipe/list -->
<g id="node28" class="node">
<title>/api/settings/cook/recipe/list</title>
<polygon fill="#caff70" stroke="#000000" points="225.1906,-207.7044 225.1906,-243.7044 279.1906,-243.7044 279.1906,-207.7044 225.1906,-207.7044"/>
<text text-anchor="middle" x="252.1906" y="-222.0044" font-family="Times,serif" font-size="14.00" fill="#000000">list</text>
</g>
<!-- /api/routine/cook/list&#45;&gt;/api/settings/cook/recipe/list -->
<g id="edge7" class="edge">
<title>/api/routine/cook/list&#45;&gt;/api/settings/cook/recipe/list</title>
<path fill="none" stroke="#00bfff" d="M398.2776,-513.9445C393.7443,-507.9989 388.8909,-501.2539 384.8725,-494.7836 332.2846,-410.1097 327.5023,-384.1591 284.1106,-294.4244 277.5392,-280.8348 270.4456,-265.6207 264.6182,-252.969"/>
<polygon fill="#00bfff" stroke="#00bfff" points="267.791,-251.4912 260.4384,-243.8629 261.4292,-254.4113 267.791,-251.4912"/>
</g>
<!-- /api/routine/cook/start -->
<g id="node18" class="node">
<title>/api/routine/cook/start</title>
<polygon fill="#caff70" stroke="#000000" points="385.9525,-458.0636 385.9525,-494.0636 439.9525,-494.0636 439.9525,-458.0636 385.9525,-458.0636"/>
<text text-anchor="middle" x="412.9525" y="-472.3636" font-family="Times,serif" font-size="14.00" fill="#000000">start</text>
</g>
<!-- /api/routine/cook/kill -->
<g id="node19" class="node">
<title>/api/routine/cook/kill</title>
<polygon fill="#caff70" stroke="#000000" points="385.9525,-570.0636 385.9525,-606.0636 439.9525,-606.0636 439.9525,-570.0636 385.9525,-570.0636"/>
<text text-anchor="middle" x="412.9525" y="-584.3636" font-family="Times,serif" font-size="14.00" fill="#000000">kill</text>
</g>
<!-- /api/routine/cook/schedule/list -->
<g id="node20" class="node">
<title>/api/routine/cook/schedule/list</title>
<polygon fill="#caff70" stroke="#000000" points="250.1906,-473.7044 250.1906,-509.7044 304.1906,-509.7044 304.1906,-473.7044 250.1906,-473.7044"/>
<text text-anchor="middle" x="277.1906" y="-488.0044" font-family="Times,serif" font-size="14.00" fill="#000000">list</text>
</g>
<!-- /api/routine/cook/schedule/set -->
<g id="node21" class="node">
<title>/api/routine/cook/schedule/set</title>
<polygon fill="#caff70" stroke="#000000" points="310.1906,-523.7044 310.1906,-559.7044 364.1906,-559.7044 364.1906,-523.7044 310.1906,-523.7044"/>
<text text-anchor="middle" x="337.1906" y="-538.0044" font-family="Times,serif" font-size="14.00" fill="#000000">set</text>
</g>
<!-- /api/settings/time -->
<g id="node22" class="node">
<title>/api/settings/time</title>
<polygon fill="#ff6347" stroke="#000000" points="384.7144,-176.9227 384.7144,-212.9227 438.7144,-212.9227 438.7144,-176.9227 384.7144,-176.9227"/>
<text text-anchor="middle" x="411.7144" y="-191.2227" font-family="Times,serif" font-size="14.00" fill="#000000">time</text>
</g>
<!-- /api/settings/lighting/list -->
<g id="node23" class="node">
<title>/api/settings/lighting/list</title>
<polygon fill="#caff70" stroke="#000000" points="392.9525,-23.5636 392.9525,-59.5636 446.9525,-59.5636 446.9525,-23.5636 392.9525,-23.5636"/>
<text text-anchor="middle" x="419.9525" y="-37.8636" font-family="Times,serif" font-size="14.00" fill="#000000">list</text>
</g>
<!-- /api/settings/lighting/set -->
<g id="node24" class="node">
<title>/api/settings/lighting/set</title>
<polygon fill="#caff70" stroke="#000000" points="452.9525,-73.5636 452.9525,-109.5636 506.9525,-109.5636 506.9525,-73.5636 452.9525,-73.5636"/>
<text text-anchor="middle" x="479.9525" y="-87.8636" font-family="Times,serif" font-size="14.00" fill="#000000">set</text>
</g>
<!-- /api/settings/cook/warm/temperature -->
<g id="node25" class="node">
<title>/api/settings/cook/warm/temperature</title>
<polygon fill="#caff70" stroke="#000000" points="32.1906,-31.7044 32.1906,-67.7044 139.1906,-67.7044 139.1906,-31.7044 32.1906,-31.7044"/>
<text text-anchor="middle" x="85.6906" y="-46.0044" font-family="Times,serif" font-size="14.00" fill="#000000">temperature</text>
</g>
<!-- /api/settings/cook/warm/set -->
<g id="node26" class="node">
<title>/api/settings/cook/warm/set</title>
<polygon fill="#caff70" stroke="#000000" points="50.6906,-97.7044 50.6906,-133.7044 104.6906,-133.7044 104.6906,-97.7044 50.6906,-97.7044"/>
<text text-anchor="middle" x="77.6906" y="-112.0044" font-family="Times,serif" font-size="14.00" fill="#000000">set</text>
</g>
<!-- /api/settings/cook/warm/duration -->
<g id="node27" class="node">
<title>/api/settings/cook/warm/duration</title>
<polygon fill="#caff70" stroke="#000000" points="116.1906,-79.7044 116.1906,-115.7044 193.1906,-115.7044 193.1906,-79.7044 116.1906,-79.7044"/>
<text text-anchor="middle" x="154.6906" y="-94.0044" font-family="Times,serif" font-size="14.00" fill="#000000">duration</text>
</g>
<!-- /api/settings/cook/recipe/set -->
<g id="node29" class="node">
<title>/api/settings/cook/recipe/set</title>
<polygon fill="#caff70" stroke="#000000" points="285.1906,-257.7044 285.1906,-293.7044 339.1906,-293.7044 339.1906,-257.7044 285.1906,-257.7044"/>
<text text-anchor="middle" x="312.1906" y="-272.0044" font-family="Times,serif" font-size="14.00" fill="#000000">set</text>
</g>
</g>
</svg>
