<?xml version="1.0" encoding="UTF-8" standalone="no"?>
<!DOCTYPE svg PUBLIC "-//W3C//DTD SVG 1.1//EN"
 "http://www.w3.org/Graphics/SVG/1.1/DTD/svg11.dtd">
<!-- Generated by graphviz version 2.40.1 (20161225.0304)
 -->
<!-- Title: %3 Pages: 1 -->
<svg width="1459pt" height="1057pt"
 viewBox="0.00 0.00 1459.00 1057.00" xmlns="http://www.w3.org/2000/svg" xmlns:xlink="http://www.w3.org/1999/xlink">
<g id="graph0" class="graph" transform="scale(1 1) rotate(0) translate(4 1053)">
<title>%3</title>
<polygon fill="#ffffff" stroke="transparent" points="-4,4 -4,-1053 1455,-1053 1455,4 -4,4"/>
<g id="clust1" class="cluster">
<title>cluster_key</title>
<polygon fill="none" stroke="#000000" points="983.7381,-.1409 983.7381,-293.1409 1450.7381,-293.1409 1450.7381,-.1409 983.7381,-.1409"/>
<text text-anchor="middle" x="1217.2381" y="-277.9409" font-family="Times,serif" font-size="14.00" fill="#000000">Key</text>
</g>
<g id="clust2" class="cluster">
<title>cluster_doc</title>
<polygon fill="none" stroke="#000000" points="1221.4762,-145.7818 1221.4762,-261.7818 1442.4762,-261.7818 1442.4762,-145.7818 1221.4762,-145.7818"/>
</g>
<g id="clust3" class="cluster">
<title>cluster_sub</title>
<polygon fill="none" stroke="#000000" points="992.1124,-8.1466 992.1124,-226.1466 1185.1124,-226.1466 1185.1124,-8.1466 992.1124,-8.1466"/>
</g>
<g id="clust4" class="cluster">
<title>cluster_directives</title>
<polygon fill="none" stroke="#000000" points="-.0126,-623.898 -.0126,-1048.898 511.9874,-1048.898 511.9874,-623.898 -.0126,-623.898"/>
<text text-anchor="middle" x="255.9874" y="-1033.698" font-family="Times,serif" font-size="14.00" fill="#000000">Directives</text>
</g>
<g id="clust5" class="cluster">
<title>cluster_primary</title>
<polygon fill="none" stroke="#000000" points="372.2255,-891.5389 372.2255,-1017.5389 504.2255,-1017.5389 504.2255,-891.5389 372.2255,-891.5389"/>
<text text-anchor="middle" x="438.2255" y="-1002.3389" font-family="Times,serif" font-size="14.00" fill="#000000">Primary</text>
</g>
<g id="clust6" class="cluster">
<title>cluster_secondary</title>
<polygon fill="none" stroke="#000000" points="7.8531,-632.1826 7.8531,-844.1826 427.8531,-844.1826 427.8531,-632.1826 7.8531,-632.1826"/>
<text text-anchor="middle" x="217.8531" y="-828.9826" font-family="Times,serif" font-size="14.00" fill="#000000">Secondary</text>
</g>
<g id="clust7" class="cluster">
<title>cluster_sensor</title>
<polygon fill="none" stroke="#000000" points="790.4786,-790.4494 790.4786,-866.4494 916.4786,-866.4494 916.4786,-790.4494 790.4786,-790.4494"/>
<text text-anchor="middle" x="853.4786" y="-851.2494" font-family="Times,serif" font-size="14.00" fill="#000000">Sensors</text>
</g>
<g id="clust8" class="cluster">
<title>cluster_api</title>
<polygon fill="none" stroke="#000000" points="251.5635,.1548 251.5635,-615.8452 844.5635,-615.8452 844.5635,.1548 251.5635,.1548"/>
<text text-anchor="middle" x="548.0635" y="-600.6452" font-family="Times,serif" font-size="14.00" fill="#000000">api</text>
</g>
<g id="clust9" class="cluster">
<title>cluster_action</title>
<polygon fill="none" stroke="#000000" points="559.1506,-357.5416 559.1506,-536.5416 836.1506,-536.5416 836.1506,-357.5416 559.1506,-357.5416"/>
<text text-anchor="middle" x="697.6506" y="-521.3416" font-family="Times,serif" font-size="14.00" fill="#000000">action</text>
</g>
<g id="clust10" class="cluster">
<title>cluster_light</title>
<polygon fill="none" stroke="#000000" points="567.3888,-379.1825 567.3888,-505.1825 697.3888,-505.1825 697.3888,-379.1825 567.3888,-379.1825"/>
<text text-anchor="middle" x="632.3888" y="-489.9825" font-family="Times,serif" font-size="14.00" fill="#000000">light</text>
</g>
<g id="clust11" class="cluster">
<title>cluster_temperature</title>
<polygon fill="none" stroke="#000000" points="721.4259,-365.3657 721.4259,-486.3657 828.4259,-486.3657 828.4259,-365.3657 721.4259,-365.3657"/>
<text text-anchor="middle" x="774.9259" y="-471.1657" font-family="Times,serif" font-size="14.00" fill="#000000">temperature</text>
</g>
<g id="clust12" class="cluster">
<title>cluster_api_sensor</title>
<polygon fill="none" stroke="#000000" points="609.3016,-7.4861 609.3016,-83.4861 732.3016,-83.4861 732.3016,-7.4861 609.3016,-7.4861"/>
<text text-anchor="middle" x="670.8016" y="-68.2861" font-family="Times,serif" font-size="14.00" fill="#000000">sensor</text>
</g>
<g id="clust13" class="cluster">
<title>cluster_routine</title>
<polygon fill="none" stroke="#000000" points="284.8016,-357.9861 284.8016,-584.9861 514.8016,-584.9861 514.8016,-357.9861 284.8016,-357.9861"/>
<text text-anchor="middle" x="399.8016" y="-569.7861" font-family="Times,serif" font-size="14.00" fill="#000000">routine</text>
</g>
<g id="clust14" class="cluster">
<title>cluster_routine_cook</title>
<polygon fill="none" stroke="#000000" points="293.0397,-365.627 293.0397,-553.627 507.0397,-553.627 507.0397,-365.627 293.0397,-365.627"/>
<text text-anchor="middle" x="400.0397" y="-538.427" font-family="Times,serif" font-size="14.00" fill="#000000">cook</text>
</g>
<g id="clust15" class="cluster">
<title>cluster_schedule</title>
<polygon fill="none" stroke="#000000" points="301.2778,-381.2679 301.2778,-507.2679 431.2778,-507.2679 431.2778,-381.2679 301.2778,-381.2679"/>
<text text-anchor="middle" x="366.2778" y="-492.0679" font-family="Times,serif" font-size="14.00" fill="#000000">schedule</text>
</g>
<g id="clust16" class="cluster">
<title>cluster_settings</title>
<polygon fill="none" stroke="#000000" points="259.8016,-57.9861 259.8016,-326.9861 573.8016,-326.9861 573.8016,-57.9861 259.8016,-57.9861"/>
<text text-anchor="middle" x="416.8016" y="-311.7861" font-family="Times,serif" font-size="14.00" fill="#000000">settings</text>
</g>
<g id="clust17" class="cluster">
<title>cluster_time</title>
<polygon fill="none" stroke="#000000" points="436.0397,-219.627 436.0397,-295.627 506.0397,-295.627 506.0397,-219.627 436.0397,-219.627"/>
<text text-anchor="middle" x="471.0397" y="-280.427" font-family="Times,serif" font-size="14.00" fill="#000000">time</text>
</g>
<g id="clust18" class="cluster">
<title>cluster_lighting</title>
<polygon fill="none" stroke="#000000" points="436.0397,-65.627 436.0397,-191.627 566.0397,-191.627 566.0397,-65.627 436.0397,-65.627"/>
<text text-anchor="middle" x="501.0397" y="-176.427" font-family="Times,serif" font-size="14.00" fill="#000000">lighting</text>
</g>
<g id="clust19" class="cluster">
<title>cluster_settings_cook</title>
<polygon fill="none" stroke="#000000" points="268.0397,-80.127 268.0397,-245.127 414.0397,-245.127 414.0397,-80.127 268.0397,-80.127"/>
<text text-anchor="middle" x="341.0397" y="-229.927" font-family="Times,serif" font-size="14.00" fill="#000000">cook</text>
</g>
<g id="clust20" class="cluster">
<title>cluster_recipe</title>
<polygon fill="none" stroke="#000000" points="276.2778,-87.7679 276.2778,-213.7679 406.2778,-213.7679 406.2778,-87.7679 276.2778,-87.7679"/>
<text text-anchor="middle" x="341.2778" y="-198.5679" font-family="Times,serif" font-size="14.00" fill="#000000">recipe</text>
</g>
<!-- Done -->
<g id="node1" class="node">
<title>Done</title>
<polygon fill="#7fff00" stroke="#000000" points="1257.7144,-217.4227 1257.7144,-253.4227 1311.7144,-253.4227 1311.7144,-217.4227 1257.7144,-217.4227"/>
<text text-anchor="middle" x="1284.7144" y="-231.7227" font-family="Times,serif" font-size="14.00" fill="#000000">Done</text>
</g>
<!-- Documented -->
<g id="node2" class="node">
<title>Documented</title>
<polygon fill="#caff70" stroke="#000000" points="1327.2144,-203.4227 1327.2144,-239.4227 1434.2144,-239.4227 1434.2144,-203.4227 1327.2144,-203.4227"/>
<text text-anchor="middle" x="1380.7144" y="-217.7227" font-family="Times,serif" font-size="14.00" fill="#000000">Documented</text>
</g>
<!-- Undocumented -->
<g id="node3" class="node">
<title>Undocumented</title>
<polygon fill="#ff6347" stroke="#000000" points="1229.7144,-154.4227 1229.7144,-190.4227 1355.7144,-190.4227 1355.7144,-154.4227 1229.7144,-154.4227"/>
<text text-anchor="middle" x="1292.7144" y="-168.7227" font-family="Times,serif" font-size="14.00" fill="#000000">Undocumented</text>
</g>
<!-- Depend on value -->
<g id="node4" class="node">
<title>Depend on value</title>
<polygon fill="transparent" stroke="#000000" points="1013.0629,-17.0879 1013.0629,-53.0879 1149.0629,-53.0879 1149.0629,-17.0879 1013.0629,-17.0879"/>
<text text-anchor="middle" x="1081.0629" y="-31.3879" font-family="Times,serif" font-size="14.00" fill="#000000">Depend on value</text>
</g>
<!-- Node -->
<g id="node8" class="node">
<title>Node</title>
<polygon fill="transparent" stroke="#000000" points="1193.1256,-79.4232 1193.1256,-115.4232 1248.1256,-115.4232 1248.1256,-79.4232 1193.1256,-79.4232"/>
<text text-anchor="middle" x="1220.6256" y="-93.7232" font-family="Times,serif" font-size="14.00" fill="#000000">Node</text>
</g>
<!-- Depend on value&#45;&gt;Node -->
<g id="edge1" class="edge">
<title>Depend on value&#45;&gt;Node</title>
<path fill="none" stroke="#0000ff" d="M1121.4302,-53.1178C1140.989,-61.8537 1164.3213,-72.275 1183.442,-80.8152"/>
<polygon fill="#0000ff" stroke="#0000ff" points="1182.1761,-84.083 1192.7341,-84.9655 1185.0308,-77.6915 1182.1761,-84.083"/>
</g>
<!-- Proxy to value -->
<g id="node5" class="node">
<title>Proxy to value</title>
<polygon fill="transparent" stroke="#000000" points="1048.3692,-85.2431 1048.3692,-121.2431 1167.3692,-121.2431 1167.3692,-85.2431 1048.3692,-85.2431"/>
<text text-anchor="middle" x="1107.8692" y="-99.5431" font-family="Times,serif" font-size="14.00" fill="#000000">Proxy to value</text>
</g>
<!-- Proxy to value&#45;&gt;Node -->
<g id="edge2" class="edge">
<title>Proxy to value&#45;&gt;Node</title>
<path fill="none" stroke="#00bfff" d="M1167.5491,-100.1627C1172.6798,-99.8979 1177.7739,-99.635 1182.6606,-99.3827"/>
<polygon fill="#00bfff" stroke="#00bfff" points="1183.1548,-102.862 1192.9611,-98.8511 1182.7939,-95.8713 1183.1548,-102.862"/>
</g>
<!-- Depend on function -->
<g id="node6" class="node">
<title>Depend on function</title>
<polygon fill="transparent" stroke="#000000" points="999.9595,-130.2476 999.9595,-166.2476 1156.9595,-166.2476 1156.9595,-130.2476 999.9595,-130.2476"/>
<text text-anchor="middle" x="1078.4595" y="-144.5476" font-family="Times,serif" font-size="14.00" fill="#000000">Depend on function</text>
</g>
<!-- Depend on function&#45;&gt;Node -->
<g id="edge3" class="edge">
<title>Depend on function&#45;&gt;Node</title>
<path fill="none" stroke="#6495ed" d="M1146.188,-130.1398C1154.1959,-127.5897 1162.1998,-124.8469 1169.7492,-121.9631 1174.3182,-120.2178 1179.038,-118.2211 1183.6764,-116.1372"/>
<polygon fill="#6495ed" stroke="#6495ed" points="1185.4219,-119.1853 1193.0086,-111.7899 1182.4659,-112.84 1185.4219,-119.1853"/>
</g>
<!-- Proxy to function -->
<g id="node7" class="node">
<title>Proxy to function</title>
<polygon fill="transparent" stroke="#000000" points="1036.7213,-181.4596 1036.7213,-217.4596 1176.7213,-217.4596 1176.7213,-181.4596 1036.7213,-181.4596"/>
<text text-anchor="middle" x="1106.7213" y="-195.7596" font-family="Times,serif" font-size="14.00" fill="#000000">Proxy to function</text>
</g>
<!-- Proxy to function&#45;&gt;Node -->
<g id="edge4" class="edge">
<title>Proxy to function&#45;&gt;Node</title>
<path fill="none" stroke="#1e90ff" d="M1139.9927,-181.3916C1146.9139,-177.0425 1153.9629,-172.1439 1160.0995,-166.9676 1175.196,-154.2336 1189.801,-137.6186 1200.881,-123.8221"/>
<polygon fill="#1e90ff" stroke="#1e90ff" points="1203.8712,-125.6816 1207.2973,-115.656 1198.3669,-121.3568 1203.8712,-125.6816"/>
</g>
<!-- Sleep -->
<g id="node9" class="node">
<title>Sleep</title>
<polygon fill="#caff70" stroke="#000000" points="440.4636,-950.1798 440.4636,-986.1798 496.4636,-986.1798 496.4636,-950.1798 440.4636,-950.1798"/>
<text text-anchor="middle" x="468.4636" y="-964.4798" font-family="Times,serif" font-size="14.00" fill="#000000">Sleep</text>
</g>
<!-- Heat -->
<g id="node10" class="node">
<title>Heat</title>
<polygon fill="#caff70" stroke="#000000" points="380.4636,-900.1798 380.4636,-936.1798 434.4636,-936.1798 434.4636,-900.1798 380.4636,-900.1798"/>
<text text-anchor="middle" x="407.4636" y="-914.4798" font-family="Times,serif" font-size="14.00" fill="#000000">Heat</text>
</g>
<!-- Lighting Change -->
<g id="node11" class="node">
<title>Lighting Change</title>
<polygon fill="#caff70" stroke="#000000" points="270.5912,-708.8235 270.5912,-744.8235 407.5912,-744.8235 407.5912,-708.8235 270.5912,-708.8235"/>
<text text-anchor="middle" x="339.0912" y="-723.1235" font-family="Times,serif" font-size="14.00" fill="#000000">Lighting Change</text>
</g>
<!-- Lighting Kill -->
<g id="node12" class="node">
<title>Lighting Kill</title>
<polygon fill="#caff70" stroke="#000000" points="271.0912,-776.8235 271.0912,-812.8235 377.0912,-812.8235 377.0912,-776.8235 271.0912,-776.8235"/>
<text text-anchor="middle" x="324.0912" y="-791.1235" font-family="Times,serif" font-size="14.00" fill="#000000">Lighting Kill</text>
</g>
<!-- Temperature Kill -->
<g id="node13" class="node">
<title>Temperature Kill</title>
<polygon fill="#caff70" stroke="#000000" points="15.7163,-703.8979 15.7163,-739.8979 153.7163,-739.8979 153.7163,-703.8979 15.7163,-703.8979"/>
<text text-anchor="middle" x="84.7163" y="-718.1979" font-family="Times,serif" font-size="14.00" fill="#000000">Temperature Kill</text>
</g>
<!-- Temperature Kill&#45;&gt;Heat -->
<g id="edge9" class="edge">
<title>Temperature Kill&#45;&gt;Heat</title>
<path fill="none" stroke="#1e90ff" d="M153.9652,-719.0004C183.9257,-721.1425 217.6814,-728.5348 242.271,-748.1824 266.7862,-767.7705 249.8364,-788.673 268.9712,-813.5435 296.9853,-849.9548 340.7481,-880.1071 371.5678,-898.5422"/>
<polygon fill="#1e90ff" stroke="#1e90ff" points="369.8916,-901.6166 380.2887,-903.6538 373.4313,-895.5775 369.8916,-901.6166"/>
</g>
<!-- Temperature Change -->
<g id="node14" class="node">
<title>Temperature Change</title>
<polygon fill="#caff70" stroke="#000000" points="251.3143,-640.3257 251.3143,-676.3257 420.3143,-676.3257 420.3143,-640.3257 251.3143,-640.3257"/>
<text text-anchor="middle" x="335.8143" y="-654.6257" font-family="Times,serif" font-size="14.00" fill="#000000">Temperature Change</text>
</g>
<!-- Temperature Change&#45;&gt;Sleep -->
<g id="edge5" class="edge">
<title>Temperature Change&#45;&gt;Sleep</title>
<path fill="none" stroke="#6495ed" d="M374.5286,-676.4834C387.7071,-684.453 401.3593,-695.0142 410.3312,-708.1035 460.0453,-780.6323 467.984,-888.8137 468.7751,-939.7357"/>
<polygon fill="#6495ed" stroke="#6495ed" points="465.2769,-940.0084 468.8475,-949.9834 472.2767,-939.9589 465.2769,-940.0084"/>
</g>
<!-- Temperature Change&#45;&gt;Heat -->
<g id="edge6" class="edge">
<title>Temperature Change&#45;&gt;Heat</title>
<path fill="none" stroke="#6495ed" d="M377.7173,-676.4388C390.5383,-684.2114 403.1431,-694.6575 410.3312,-708.1035 441.5609,-766.5219 427.038,-847.7789 415.9606,-890.0707"/>
<polygon fill="#6495ed" stroke="#6495ed" points="412.5219,-889.3758 413.2484,-899.9457 419.2719,-891.2297 412.5219,-889.3758"/>
</g>
<!-- Temperature -->
<g id="node16" class="node">
<title>Temperature</title>
<polygon fill="#ff6347" stroke="#000000" points="798.8816,-799.2222 798.8816,-835.2222 908.8816,-835.2222 908.8816,-799.2222 798.8816,-799.2222"/>
<text text-anchor="middle" x="853.8816" y="-813.5222" font-family="Times,serif" font-size="14.00" fill="#000000">Temperature</text>
</g>
<!-- Temperature Change&#45;&gt;Temperature -->
<g id="edge10" class="edge">
<title>Temperature Change&#45;&gt;Temperature</title>
<path fill="none" stroke="#0000ff" d="M394.7388,-676.3985C492.3973,-706.3513 687.0816,-766.0629 788.7111,-797.2338"/>
<polygon fill="#0000ff" stroke="#0000ff" points="787.9605,-800.6644 798.5473,-800.2506 790.0132,-793.9721 787.9605,-800.6644"/>
</g>
<!-- Temperature Hold -->
<g id="node15" class="node">
<title>Temperature Hold</title>
<polygon fill="#caff70" stroke="#000000" points="90.291,-748.9024 90.291,-784.9024 239.291,-784.9024 239.291,-748.9024 90.291,-748.9024"/>
<text text-anchor="middle" x="164.791" y="-763.2024" font-family="Times,serif" font-size="14.00" fill="#000000">Temperature Hold</text>
</g>
<!-- Temperature Hold&#45;&gt;Sleep -->
<g id="edge7" class="edge">
<title>Temperature Hold&#45;&gt;Sleep</title>
<path fill="none" stroke="#6495ed" d="M183.0612,-784.9387C218.2963,-818.8645 299.2587,-892.7285 379.3836,-936.8998 395.3124,-945.6811 414.1697,-952.7269 430.4238,-957.8919"/>
<polygon fill="#6495ed" stroke="#6495ed" points="429.5722,-961.2913 440.1583,-960.8634 431.6159,-954.5963 429.5722,-961.2913"/>
</g>
<!-- Temperature Hold&#45;&gt;Heat -->
<g id="edge8" class="edge">
<title>Temperature Hold&#45;&gt;Heat</title>
<path fill="none" stroke="#6495ed" d="M194.063,-785.15C238.6848,-812.9664 323.6051,-865.904 371.7761,-895.9329"/>
<polygon fill="#6495ed" stroke="#6495ed" points="369.9873,-898.9422 380.325,-901.2622 373.6904,-893.0018 369.9873,-898.9422"/>
</g>
<!-- Temperature Hold&#45;&gt;Temperature -->
<g id="edge11" class="edge">
<title>Temperature Hold&#45;&gt;Temperature</title>
<path fill="none" stroke="#0000ff" d="M239.7538,-769.3194C280.94,-770.8486 332.9194,-773.1067 379.2112,-776.1035 525.6545,-785.584 697.0939,-801.6724 788.5511,-810.6567"/>
<polygon fill="#0000ff" stroke="#0000ff" points="788.4678,-814.1654 798.7628,-811.663 789.1543,-807.1991 788.4678,-814.1654"/>
</g>
<!-- /api/action/light/kill -->
<g id="node17" class="node">
<title>/api/action/light/kill</title>
<polygon fill="#caff70" stroke="#000000" points="575.6269,-387.8233 575.6269,-423.8233 629.6269,-423.8233 629.6269,-387.8233 575.6269,-387.8233"/>
<text text-anchor="middle" x="602.6269" y="-402.1233" font-family="Times,serif" font-size="14.00" fill="#000000">kill</text>
</g>
<!-- /api/action/light/set -->
<g id="node18" class="node">
<title>/api/action/light/set</title>
<polygon fill="#caff70" stroke="#000000" points="635.6269,-437.8233 635.6269,-473.8233 689.6269,-473.8233 689.6269,-437.8233 635.6269,-437.8233"/>
<text text-anchor="middle" x="662.6269" y="-452.1233" font-family="Times,serif" font-size="14.00" fill="#000000">set</text>
</g>
<!-- /api/action/temperature/kill -->
<g id="node19" class="node">
<title>/api/action/temperature/kill</title>
<polygon fill="#caff70" stroke="#000000" points="746.1925,-374.1479 746.1925,-410.1479 800.1925,-410.1479 800.1925,-374.1479 746.1925,-374.1479"/>
<text text-anchor="middle" x="773.1925" y="-388.4479" font-family="Times,serif" font-size="14.00" fill="#000000">kill</text>
</g>
<!-- /api/action/temperature/kill&#45;&gt;Temperature Kill -->
<g id="edge13" class="edge">
<title>/api/action/temperature/kill&#45;&gt;Temperature Kill</title>
<path fill="none" stroke="#1e90ff" d="M746.0959,-398.7275C717.5679,-406.1567 671.7243,-419.5354 634.5469,-437.1033 570.526,-467.3559 562.4625,-488.9746 500.3578,-522.9879 391.9669,-582.351 359.2196,-585.8644 247.9343,-639.6058 207.3599,-659.1997 161.5852,-682.373 128.8598,-699.1279"/>
<polygon fill="#1e90ff" stroke="#1e90ff" points="126.8691,-696.2152 119.5675,-703.8924 130.0629,-702.4442 126.8691,-696.2152"/>
</g>
<!-- /api/action/temperature/kill&#45;&gt;Temperature -->
<g id="edge14" class="edge">
<title>/api/action/temperature/kill&#45;&gt;Temperature</title>
<path fill="none" stroke="#00bfff" d="M798.753,-410.3934C801.0069,-412.8717 803.0217,-415.5603 804.5846,-418.4324 872.3188,-542.9043 863.599,-720.9294 857.1089,-789.1498"/>
<polygon fill="#00bfff" stroke="#00bfff" points="853.6235,-788.8293 856.0984,-799.131 860.5879,-789.5344 853.6235,-788.8293"/>
</g>
<!-- /api/action/temperature/set -->
<g id="node20" class="node">
<title>/api/action/temperature/set</title>
<polygon fill="#caff70" stroke="#000000" points="749.5046,-419.1524 749.5046,-455.1524 803.5046,-455.1524 803.5046,-419.1524 749.5046,-419.1524"/>
<text text-anchor="middle" x="776.5046" y="-433.4524" font-family="Times,serif" font-size="14.00" fill="#000000">set</text>
</g>
<!-- /api/action/temperature/set&#45;&gt;Temperature Change -->
<g id="edge12" class="edge">
<title>/api/action/temperature/set&#45;&gt;Temperature Change</title>
<path fill="none" stroke="#1e90ff" d="M749.27,-450.8208C675.6109,-487.7888 471.8888,-590.0328 380.8187,-635.7389"/>
<polygon fill="#1e90ff" stroke="#1e90ff" points="379.2118,-632.6293 371.8442,-640.2431 382.3517,-638.8856 379.2118,-632.6293"/>
</g>
<!-- /api/sensor/temperature -->
<g id="node21" class="node">
<title>/api/sensor/temperature</title>
<polygon fill="#caff70" stroke="#000000" points="617.0397,-16.127 617.0397,-52.127 724.0397,-52.127 724.0397,-16.127 617.0397,-16.127"/>
<text text-anchor="middle" x="670.5397" y="-30.427" font-family="Times,serif" font-size="14.00" fill="#000000">temperature</text>
</g>
<!-- /api/routine/cook/list -->
<g id="node22" class="node">
<title>/api/routine/cook/list</title>
<polygon fill="#caff70" stroke="#000000" points="445.2778,-430.2679 445.2778,-466.2679 499.2778,-466.2679 499.2778,-430.2679 445.2778,-430.2679"/>
<text text-anchor="middle" x="472.2778" y="-444.5679" font-family="Times,serif" font-size="14.00" fill="#000000">list</text>
</g>
<!-- /api/settings/cook/recipe/list -->
<g id="node30" class="node">
<title>/api/settings/cook/recipe/list</title>
<polygon fill="#caff70" stroke="#000000" points="284.516,-96.4087 284.516,-132.4087 338.516,-132.4087 338.516,-96.4087 284.516,-96.4087"/>
<text text-anchor="middle" x="311.516" y="-110.7087" font-family="Times,serif" font-size="14.00" fill="#000000">list</text>
</g>
<!-- /api/routine/cook/list&#45;&gt;/api/settings/cook/recipe/list -->
<g id="edge15" class="edge">
<title>/api/routine/cook/list&#45;&gt;/api/settings/cook/recipe/list</title>
<path fill="none" stroke="#00bfff" d="M457.4257,-430.2561C452.8829,-424.3163 448.0687,-417.5475 444.1978,-410.9879 388.7191,-316.9732 341.2948,-195.6118 321.4524,-141.9781"/>
<polygon fill="#00bfff" stroke="#00bfff" points="324.6966,-140.659 317.9649,-132.4776 318.1253,-143.0712 324.6966,-140.659"/>
</g>
<!-- /api/routine/cook/start -->
<g id="node23" class="node">
<title>/api/routine/cook/start</title>
<polygon fill="#caff70" stroke="#000000" points="445.2778,-486.2679 445.2778,-522.2679 499.2778,-522.2679 499.2778,-486.2679 445.2778,-486.2679"/>
<text text-anchor="middle" x="472.2778" y="-500.5679" font-family="Times,serif" font-size="14.00" fill="#000000">start</text>
</g>
<!-- /api/routine/cook/kill -->
<g id="node24" class="node">
<title>/api/routine/cook/kill</title>
<polygon fill="#caff70" stroke="#000000" points="445.2778,-374.2679 445.2778,-410.2679 499.2778,-410.2679 499.2778,-374.2679 445.2778,-374.2679"/>
<text text-anchor="middle" x="472.2778" y="-388.5679" font-family="Times,serif" font-size="14.00" fill="#000000">kill</text>
</g>
<!-- /api/routine/cook/schedule/list -->
<g id="node25" class="node">
<title>/api/routine/cook/schedule/list</title>
<polygon fill="#caff70" stroke="#000000" points="309.516,-389.9087 309.516,-425.9087 363.516,-425.9087 363.516,-389.9087 309.516,-389.9087"/>
<text text-anchor="middle" x="336.516" y="-404.2087" font-family="Times,serif" font-size="14.00" fill="#000000">list</text>
</g>
<!-- /api/routine/cook/schedule/set -->
<g id="node26" class="node">
<title>/api/routine/cook/schedule/set</title>
<polygon fill="#caff70" stroke="#000000" points="369.516,-439.9087 369.516,-475.9087 423.516,-475.9087 423.516,-439.9087 369.516,-439.9087"/>
<text text-anchor="middle" x="396.516" y="-454.2087" font-family="Times,serif" font-size="14.00" fill="#000000">set</text>
</g>
<!-- /api/settings/time/set -->
<g id="node27" class="node">
<title>/api/settings/time/set</title>
<polygon fill="#caff70" stroke="#000000" points="444.2778,-228.2679 444.2778,-264.2679 498.2778,-264.2679 498.2778,-228.2679 444.2778,-228.2679"/>
<text text-anchor="middle" x="471.2778" y="-242.5679" font-family="Times,serif" font-size="14.00" fill="#000000">set</text>
</g>
<!-- /api/settings/lighting/list -->
<g id="node28" class="node">
<title>/api/settings/lighting/list</title>
<polygon fill="#caff70" stroke="#000000" points="504.2778,-124.2679 504.2778,-160.2679 558.2778,-160.2679 558.2778,-124.2679 504.2778,-124.2679"/>
<text text-anchor="middle" x="531.2778" y="-138.5679" font-family="Times,serif" font-size="14.00" fill="#000000">list</text>
</g>
<!-- /api/settings/lighting/set -->
<g id="node29" class="node">
<title>/api/settings/lighting/set</title>
<polygon fill="#caff70" stroke="#000000" points="444.2778,-74.2679 444.2778,-110.2679 498.2778,-110.2679 498.2778,-74.2679 444.2778,-74.2679"/>
<text text-anchor="middle" x="471.2778" y="-88.5679" font-family="Times,serif" font-size="14.00" fill="#000000">set</text>
</g>
<!-- /api/settings/cook/recipe/set -->
<g id="node31" class="node">
<title>/api/settings/cook/recipe/set</title>
<polygon fill="#caff70" stroke="#000000" points="344.516,-146.4087 344.516,-182.4087 398.516,-182.4087 398.516,-146.4087 344.516,-146.4087"/>
<text text-anchor="middle" x="371.516" y="-160.7087" font-family="Times,serif" font-size="14.00" fill="#000000">set</text>
</g>
</g>
</svg>
