<?xml version="1.0" encoding="UTF-8" standalone="no"?>
<!DOCTYPE svg PUBLIC "-//W3C//DTD SVG 1.1//EN"
 "http://www.w3.org/Graphics/SVG/1.1/DTD/svg11.dtd">
<!-- Generated by graphviz version 2.40.1 (20161225.0304)
 -->
<!-- Title: %3 Pages: 1 -->
<svg width="1361pt" height="1103pt"
 viewBox="0.00 0.00 1361.00 1103.00" xmlns="http://www.w3.org/2000/svg" xmlns:xlink="http://www.w3.org/1999/xlink">
<g id="graph0" class="graph" transform="scale(1 1) rotate(0) translate(4 1099)">
<title>%3</title>
<polygon fill="#ffffff" stroke="transparent" points="-4,4 -4,-1099 1357,-1099 1357,4 -4,4"/>
<g id="clust1" class="cluster">
<title>cluster_key</title>
<polygon fill="none" stroke="#000000" points="895.7381,-840.1409 895.7381,-1095.1409 1352.7381,-1095.1409 1352.7381,-840.1409 895.7381,-840.1409"/>
<text text-anchor="middle" x="1124.2381" y="-1079.9409" font-family="Times,serif" font-size="14.00" fill="#000000">Key</text>
</g>
<g id="clust2" class="cluster">
<title>cluster_doc</title>
<polygon fill="none" stroke="#000000" points="1123.4762,-947.7818 1123.4762,-1063.7818 1344.4762,-1063.7818 1344.4762,-947.7818 1123.4762,-947.7818"/>
</g>
<g id="clust3" class="cluster">
<title>cluster_sub</title>
<polygon fill="none" stroke="#000000" points="903.7866,-847.6918 903.7866,-993.6918 1080.7866,-993.6918 1080.7866,-847.6918 903.7866,-847.6918"/>
</g>
<g id="clust4" class="cluster">
<title>cluster_directives</title>
<polygon fill="none" stroke="#000000" points="616.2381,-839.6409 616.2381,-1023.6409 812.2381,-1023.6409 812.2381,-839.6409 616.2381,-839.6409"/>
<text text-anchor="middle" x="714.2381" y="-1008.4409" font-family="Times,serif" font-size="14.00" fill="#000000">Directives</text>
</g>
<g id="clust5" class="cluster">
<title>cluster_api</title>
<polygon fill="none" stroke="#000000" points=".2381,-.1409 .2381,-761.1409 840.2381,-761.1409 840.2381,-.1409 .2381,-.1409"/>
<text text-anchor="middle" x="420.2381" y="-745.9409" font-family="Times,serif" font-size="14.00" fill="#000000">api</text>
</g>
<g id="clust6" class="cluster">
<title>cluster_action</title>
<polygon fill="none" stroke="#000000" points="536.4762,-502.7818 536.4762,-682.7818 832.4762,-682.7818 832.4762,-502.7818 536.4762,-502.7818"/>
<text text-anchor="middle" x="684.4762" y="-667.5818" font-family="Times,serif" font-size="14.00" fill="#000000">action</text>
</g>
<g id="clust7" class="cluster">
<title>cluster_light</title>
<polygon fill="none" stroke="#000000" points="694.7144,-510.4227 694.7144,-636.4227 824.7144,-636.4227 824.7144,-510.4227 694.7144,-510.4227"/>
<text text-anchor="middle" x="759.7144" y="-621.2227" font-family="Times,serif" font-size="14.00" fill="#000000">light</text>
</g>
<g id="clust8" class="cluster">
<title>cluster_temperature</title>
<polygon fill="none" stroke="#000000" points="544.7144,-525.4227 544.7144,-651.4227 674.7144,-651.4227 674.7144,-525.4227 544.7144,-525.4227"/>
<text text-anchor="middle" x="609.7144" y="-636.2227" font-family="Times,serif" font-size="14.00" fill="#000000">temperature</text>
</g>
<g id="clust9" class="cluster">
<title>cluster_sensor</title>
<polygon fill="none" stroke="#000000" points="73.9762,-502.7818 73.9762,-578.7818 196.9762,-578.7818 196.9762,-502.7818 73.9762,-502.7818"/>
<text text-anchor="middle" x="135.4762" y="-563.5818" font-family="Times,serif" font-size="14.00" fill="#000000">sensor</text>
</g>
<g id="clust10" class="cluster">
<title>cluster_routine</title>
<polygon fill="none" stroke="#000000" points="239.4762,-503.2818 239.4762,-730.2818 469.4762,-730.2818 469.4762,-503.2818 239.4762,-503.2818"/>
<text text-anchor="middle" x="354.4762" y="-715.0818" font-family="Times,serif" font-size="14.00" fill="#000000">routine</text>
</g>
<g id="clust11" class="cluster">
<title>cluster_routine_cook</title>
<polygon fill="none" stroke="#000000" points="247.7144,-510.9227 247.7144,-698.9227 461.7144,-698.9227 461.7144,-510.9227 247.7144,-510.9227"/>
<text text-anchor="middle" x="354.7144" y="-683.7227" font-family="Times,serif" font-size="14.00" fill="#000000">cook</text>
</g>
<g id="clust12" class="cluster">
<title>cluster_schedule</title>
<polygon fill="none" stroke="#000000" points="255.9525,-526.5636 255.9525,-652.5636 385.9525,-652.5636 385.9525,-526.5636 255.9525,-526.5636"/>
<text text-anchor="middle" x="320.9525" y="-637.3636" font-family="Times,serif" font-size="14.00" fill="#000000">schedule</text>
</g>
<g id="clust13" class="cluster">
<title>cluster_settings</title>
<polygon fill="none" stroke="#000000" points="8.4762,-7.7818 8.4762,-443.7818 546.4762,-443.7818 546.4762,-7.7818 8.4762,-7.7818"/>
<text text-anchor="middle" x="277.4762" y="-428.5818" font-family="Times,serif" font-size="14.00" fill="#000000">settings</text>
</g>
<g id="clust14" class="cluster">
<title>cluster_lighting</title>
<polygon fill="none" stroke="#000000" points="408.7144,-15.4227 408.7144,-141.4227 538.7144,-141.4227 538.7144,-15.4227 408.7144,-15.4227"/>
<text text-anchor="middle" x="473.7144" y="-126.2227" font-family="Times,serif" font-size="14.00" fill="#000000">lighting</text>
</g>
<g id="clust15" class="cluster">
<title>cluster_settings_cook</title>
<polygon fill="none" stroke="#000000" points="16.7144,-71.9227 16.7144,-412.9227 354.7144,-412.9227 354.7144,-71.9227 16.7144,-71.9227"/>
<text text-anchor="middle" x="185.7144" y="-397.7227" font-family="Times,serif" font-size="14.00" fill="#000000">cook</text>
</g>
<g id="clust16" class="cluster">
<title>cluster_warm</title>
<polygon fill="none" stroke="#000000" points="24.4525,-79.5636 24.4525,-221.5636 201.4525,-221.5636 201.4525,-79.5636 24.4525,-79.5636"/>
<text text-anchor="middle" x="112.9525" y="-206.3636" font-family="Times,serif" font-size="14.00" fill="#000000">warm</text>
</g>
<g id="clust17" class="cluster">
<title>cluster_recipe</title>
<polygon fill="none" stroke="#000000" points="216.9525,-255.5636 216.9525,-381.5636 346.9525,-381.5636 346.9525,-255.5636 216.9525,-255.5636"/>
<text text-anchor="middle" x="281.9525" y="-366.3636" font-family="Times,serif" font-size="14.00" fill="#000000">recipe</text>
</g>
<!-- Done -->
<g id="node1" class="node">
<title>Done</title>
<polygon fill="#7fff00" stroke="#000000" points="1159.7144,-1019.4227 1159.7144,-1055.4227 1213.7144,-1055.4227 1213.7144,-1019.4227 1159.7144,-1019.4227"/>
<text text-anchor="middle" x="1186.7144" y="-1033.7227" font-family="Times,serif" font-size="14.00" fill="#000000">Done</text>
</g>
<!-- Documented -->
<g id="node2" class="node">
<title>Documented</title>
<polygon fill="#caff70" stroke="#000000" points="1229.2144,-1005.4227 1229.2144,-1041.4227 1336.2144,-1041.4227 1336.2144,-1005.4227 1229.2144,-1005.4227"/>
<text text-anchor="middle" x="1282.7144" y="-1019.7227" font-family="Times,serif" font-size="14.00" fill="#000000">Documented</text>
</g>
<!-- Undocumented -->
<g id="node3" class="node">
<title>Undocumented</title>
<polygon fill="#ff6347" stroke="#000000" points="1131.7144,-956.4227 1131.7144,-992.4227 1257.7144,-992.4227 1257.7144,-956.4227 1131.7144,-956.4227"/>
<text text-anchor="middle" x="1194.7144" y="-970.7227" font-family="Times,serif" font-size="14.00" fill="#000000">Undocumented</text>
</g>
<!-- Depend on value -->
<g id="node4" class="node">
<title>Depend on value</title>
<polygon fill="transparent" stroke="#000000" points="911.4052,-855.7921 911.4052,-891.7921 1047.4052,-891.7921 1047.4052,-855.7921 911.4052,-855.7921"/>
<text text-anchor="middle" x="979.4052" y="-870.0921" font-family="Times,serif" font-size="14.00" fill="#000000">Depend on value</text>
</g>
<!-- Node -->
<g id="node7" class="node">
<title>Node</title>
<polygon fill="transparent" stroke="#000000" points="1088.799,-884.1636 1088.799,-920.1636 1143.799,-920.1636 1143.799,-884.1636 1088.799,-884.1636"/>
<text text-anchor="middle" x="1116.299" y="-898.4636" font-family="Times,serif" font-size="14.00" fill="#000000">Node</text>
</g>
<!-- Depend on value&#45;&gt;Node -->
<g id="edge1" class="edge">
<title>Depend on value&#45;&gt;Node</title>
<path fill="none" stroke="#0000ff" d="M1047.451,-887.8947C1058.1938,-890.1212 1068.9497,-892.3504 1078.6602,-894.3629"/>
<polygon fill="#0000ff" stroke="#0000ff" points="1078.2345,-897.849 1088.7368,-896.4513 1079.6552,-890.9946 1078.2345,-897.849"/>
</g>
<!-- Proxy to value -->
<g id="node5" class="node">
<title>Proxy to value</title>
<polygon fill="transparent" stroke="#000000" points="911.7255,-904.3893 911.7255,-940.3893 1030.7255,-940.3893 1030.7255,-904.3893 911.7255,-904.3893"/>
<text text-anchor="middle" x="971.2255" y="-918.6893" font-family="Times,serif" font-size="14.00" fill="#000000">Proxy to value</text>
</g>
<!-- Proxy to value&#45;&gt;Node -->
<g id="edge2" class="edge">
<title>Proxy to value&#45;&gt;Node</title>
<path fill="none" stroke="#00bfff" d="M1031.0701,-914.046C1047.1486,-911.8044 1064.0858,-909.443 1078.588,-907.4212"/>
<polygon fill="#00bfff" stroke="#00bfff" points="1079.2495,-910.8629 1088.6704,-906.0155 1078.2828,-903.93 1079.2495,-910.8629"/>
</g>
<!-- Depend on function -->
<g id="node6" class="node">
<title>Depend on function</title>
<polygon fill="transparent" stroke="#000000" points="915.5548,-949.3938 915.5548,-985.3938 1072.5548,-985.3938 1072.5548,-949.3938 915.5548,-949.3938"/>
<text text-anchor="middle" x="994.0548" y="-963.6938" font-family="Times,serif" font-size="14.00" fill="#000000">Depend on function</text>
</g>
<!-- Depend on function&#45;&gt;Node -->
<g id="edge3" class="edge">
<title>Depend on function&#45;&gt;Node</title>
<path fill="none" stroke="#6495ed" d="M1028.1067,-949.2236C1044.0518,-940.7151 1063.0771,-930.5631 1079.3684,-921.87"/>
<polygon fill="#6495ed" stroke="#6495ed" points="1081.4257,-924.7394 1088.6005,-916.9437 1078.1303,-918.5636 1081.4257,-924.7394"/>
</g>
<!-- Sleep -->
<g id="node8" class="node">
<title>Sleep</title>
<polygon fill="#caff70" stroke="#000000" points="708.4762,-938.2818 708.4762,-974.2818 764.4762,-974.2818 764.4762,-938.2818 708.4762,-938.2818"/>
<text text-anchor="middle" x="736.4762" y="-952.5818" font-family="Times,serif" font-size="14.00" fill="#000000">Sleep</text>
</g>
<!-- Heat -->
<g id="node9" class="node">
<title>Heat</title>
<polygon fill="#caff70" stroke="#000000" points="750.4762,-848.2818 750.4762,-884.2818 804.4762,-884.2818 804.4762,-848.2818 750.4762,-848.2818"/>
<text text-anchor="middle" x="777.4762" y="-862.5818" font-family="Times,serif" font-size="14.00" fill="#000000">Heat</text>
</g>
<!-- Cool -->
<g id="node10" class="node">
<title>Cool</title>
<polygon fill="#caff70" stroke="#000000" points="642.4762,-956.2818 642.4762,-992.2818 696.4762,-992.2818 696.4762,-956.2818 642.4762,-956.2818"/>
<text text-anchor="middle" x="669.4762" y="-970.5818" font-family="Times,serif" font-size="14.00" fill="#000000">Cool</text>
</g>
<!-- Temperature -->
<g id="node11" class="node">
<title>Temperature</title>
<polygon fill="#caff70" stroke="#000000" points="624.4762,-890.2818 624.4762,-926.2818 734.4762,-926.2818 734.4762,-890.2818 624.4762,-890.2818"/>
<text text-anchor="middle" x="679.4762" y="-904.5818" font-family="Times,serif" font-size="14.00" fill="#000000">Temperature</text>
</g>
<!-- Temperature&#45;&gt;Sleep -->
<g id="edge4" class="edge">
<title>Temperature&#45;&gt;Sleep</title>
<path fill="none" stroke="#6495ed" d="M701.0255,-926.4285C703.0116,-928.1011 705.0458,-929.814 707.086,-931.5321"/>
<polygon fill="#6495ed" stroke="#6495ed" points="704.9929,-934.3452 714.8965,-938.1094 709.5019,-928.9908 704.9929,-934.3452"/>
</g>
<!-- Temperature&#45;&gt;Heat -->
<g id="edge5" class="edge">
<title>Temperature&#45;&gt;Heat</title>
<path fill="none" stroke="#6495ed" d="M721.6058,-890.2262C728.0062,-887.4832 734.5662,-884.6718 740.8371,-881.9843"/>
<polygon fill="#6495ed" stroke="#6495ed" points="742.5764,-885.0468 750.3892,-877.8905 739.819,-878.6128 742.5764,-885.0468"/>
</g>
<!-- Temperature&#45;&gt;Cool -->
<g id="edge6" class="edge">
<title>Temperature&#45;&gt;Cool</title>
<path fill="none" stroke="#6495ed" d="M676.7437,-926.3166C675.8177,-932.428 674.7601,-939.4083 673.7438,-946.1161"/>
<polygon fill="#6495ed" stroke="#6495ed" points="670.2431,-945.8573 672.2055,-956.2688 677.1641,-946.906 670.2431,-945.8573"/>
</g>
<!-- /api/action/light/kill -->
<g id="node12" class="node">
<title>/api/action/light/kill</title>
<polygon fill="#caff70" stroke="#000000" points="702.9525,-519.0636 702.9525,-555.0636 756.9525,-555.0636 756.9525,-519.0636 702.9525,-519.0636"/>
<text text-anchor="middle" x="729.9525" y="-533.3636" font-family="Times,serif" font-size="14.00" fill="#000000">kill</text>
</g>
<!-- /api/action/light/set -->
<g id="node13" class="node">
<title>/api/action/light/set</title>
<polygon fill="#caff70" stroke="#000000" points="762.9525,-569.0636 762.9525,-605.0636 816.9525,-605.0636 816.9525,-569.0636 762.9525,-569.0636"/>
<text text-anchor="middle" x="789.9525" y="-583.3636" font-family="Times,serif" font-size="14.00" fill="#000000">set</text>
</g>
<!-- /api/action/temperature/kill -->
<g id="node14" class="node">
<title>/api/action/temperature/kill</title>
<polygon fill="#caff70" stroke="#000000" points="612.9525,-584.0636 612.9525,-620.0636 666.9525,-620.0636 666.9525,-584.0636 612.9525,-584.0636"/>
<text text-anchor="middle" x="639.9525" y="-598.3636" font-family="Times,serif" font-size="14.00" fill="#000000">kill</text>
</g>
<!-- /api/action/temperature/set -->
<g id="node15" class="node">
<title>/api/action/temperature/set</title>
<polygon fill="#caff70" stroke="#000000" points="552.9525,-534.0636 552.9525,-570.0636 606.9525,-570.0636 606.9525,-534.0636 552.9525,-534.0636"/>
<text text-anchor="middle" x="579.9525" y="-548.3636" font-family="Times,serif" font-size="14.00" fill="#000000">set</text>
</g>
<!-- /api/sensor/temperature -->
<g id="node16" class="node">
<title>/api/sensor/temperature</title>
<polygon fill="#caff70" stroke="#000000" points="81.7144,-511.4227 81.7144,-547.4227 188.7144,-547.4227 188.7144,-511.4227 81.7144,-511.4227"/>
<text text-anchor="middle" x="135.2144" y="-525.7227" font-family="Times,serif" font-size="14.00" fill="#000000">temperature</text>
</g>
<!-- /api/routine/cook/list -->
<g id="node17" class="node">
<title>/api/routine/cook/list</title>
<polygon fill="#caff70" stroke="#000000" points="399.9525,-631.5636 399.9525,-667.5636 453.9525,-667.5636 453.9525,-631.5636 399.9525,-631.5636"/>
<text text-anchor="middle" x="426.9525" y="-645.8636" font-family="Times,serif" font-size="14.00" fill="#000000">list</text>
</g>
<!-- /api/settings/cook/recipe/list -->
<g id="node27" class="node">
<title>/api/settings/cook/recipe/list</title>
<polygon fill="#caff70" stroke="#000000" points="225.1906,-264.2044 225.1906,-300.2044 279.1906,-300.2044 279.1906,-264.2044 225.1906,-264.2044"/>
<text text-anchor="middle" x="252.1906" y="-278.5044" font-family="Times,serif" font-size="14.00" fill="#000000">list</text>
</g>
<!-- /api/routine/cook/list&#45;&gt;/api/settings/cook/recipe/list -->
<g id="edge7" class="edge">
<title>/api/routine/cook/list&#45;&gt;/api/settings/cook/recipe/list</title>
<path fill="none" stroke="#00bfff" d="M412.0905,-631.5576C407.5471,-625.6181 402.7352,-618.848 398.8725,-612.2836 336.3203,-505.9794 283.2995,-368.175 262.0894,-310.0284"/>
<polygon fill="#00bfff" stroke="#00bfff" points="265.3133,-308.6514 258.6179,-300.4403 258.7314,-311.0345 265.3133,-308.6514"/>
</g>
<!-- /api/routine/cook/start -->
<g id="node18" class="node">
<title>/api/routine/cook/start</title>
<polygon fill="#caff70" stroke="#000000" points="399.9525,-519.5636 399.9525,-555.5636 453.9525,-555.5636 453.9525,-519.5636 399.9525,-519.5636"/>
<text text-anchor="middle" x="426.9525" y="-533.8636" font-family="Times,serif" font-size="14.00" fill="#000000">start</text>
</g>
<!-- /api/routine/cook/kill -->
<g id="node19" class="node">
<title>/api/routine/cook/kill</title>
<polygon fill="#caff70" stroke="#000000" points="399.9525,-575.5636 399.9525,-611.5636 453.9525,-611.5636 453.9525,-575.5636 399.9525,-575.5636"/>
<text text-anchor="middle" x="426.9525" y="-589.8636" font-family="Times,serif" font-size="14.00" fill="#000000">kill</text>
</g>
<!-- /api/routine/cook/schedule/list -->
<g id="node20" class="node">
<title>/api/routine/cook/schedule/list</title>
<polygon fill="#caff70" stroke="#000000" points="324.1906,-585.2044 324.1906,-621.2044 378.1906,-621.2044 378.1906,-585.2044 324.1906,-585.2044"/>
<text text-anchor="middle" x="351.1906" y="-599.5044" font-family="Times,serif" font-size="14.00" fill="#000000">list</text>
</g>
<!-- /api/routine/cook/schedule/set -->
<g id="node21" class="node">
<title>/api/routine/cook/schedule/set</title>
<polygon fill="#caff70" stroke="#000000" points="264.1906,-535.2044 264.1906,-571.2044 318.1906,-571.2044 318.1906,-535.2044 264.1906,-535.2044"/>
<text text-anchor="middle" x="291.1906" y="-549.5044" font-family="Times,serif" font-size="14.00" fill="#000000">set</text>
</g>
<!-- /api/settings/lighting/list -->
<g id="node22" class="node">
<title>/api/settings/lighting/list</title>
<polygon fill="#caff70" stroke="#000000" points="416.9525,-24.0636 416.9525,-60.0636 470.9525,-60.0636 470.9525,-24.0636 416.9525,-24.0636"/>
<text text-anchor="middle" x="443.9525" y="-38.3636" font-family="Times,serif" font-size="14.00" fill="#000000">list</text>
</g>
<!-- /api/settings/lighting/set -->
<g id="node23" class="node">
<title>/api/settings/lighting/set</title>
<polygon fill="#caff70" stroke="#000000" points="476.9525,-74.0636 476.9525,-110.0636 530.9525,-110.0636 530.9525,-74.0636 476.9525,-74.0636"/>
<text text-anchor="middle" x="503.9525" y="-88.3636" font-family="Times,serif" font-size="14.00" fill="#000000">set</text>
</g>
<!-- /api/settings/cook/warm/temperature -->
<g id="node24" class="node">
<title>/api/settings/cook/warm/temperature</title>
<polygon fill="#caff70" stroke="#000000" points="32.1906,-88.2044 32.1906,-124.2044 139.1906,-124.2044 139.1906,-88.2044 32.1906,-88.2044"/>
<text text-anchor="middle" x="85.6906" y="-102.5044" font-family="Times,serif" font-size="14.00" fill="#000000">temperature</text>
</g>
<!-- /api/settings/cook/warm/set -->
<g id="node25" class="node">
<title>/api/settings/cook/warm/set</title>
<polygon fill="#caff70" stroke="#000000" points="50.6906,-154.2044 50.6906,-190.2044 104.6906,-190.2044 104.6906,-154.2044 50.6906,-154.2044"/>
<text text-anchor="middle" x="77.6906" y="-168.5044" font-family="Times,serif" font-size="14.00" fill="#000000">set</text>
</g>
<!-- /api/settings/cook/warm/duration -->
<g id="node26" class="node">
<title>/api/settings/cook/warm/duration</title>
<polygon fill="#caff70" stroke="#000000" points="116.1906,-136.2044 116.1906,-172.2044 193.1906,-172.2044 193.1906,-136.2044 116.1906,-136.2044"/>
<text text-anchor="middle" x="154.6906" y="-150.5044" font-family="Times,serif" font-size="14.00" fill="#000000">duration</text>
</g>
<!-- /api/settings/cook/recipe/set -->
<g id="node28" class="node">
<title>/api/settings/cook/recipe/set</title>
<polygon fill="#caff70" stroke="#000000" points="285.1906,-314.2044 285.1906,-350.2044 339.1906,-350.2044 339.1906,-314.2044 285.1906,-314.2044"/>
<text text-anchor="middle" x="312.1906" y="-328.5044" font-family="Times,serif" font-size="14.00" fill="#000000">set</text>
</g>
</g>
</svg>
