<?xml version="1.0" encoding="UTF-8"?>
<svg width="16" height="16" version="1.1" viewBox="0 0 4.2333 4.2333" xmlns="http://www.w3.org/2000/svg" xmlns:xlink="http://www.w3.org/1999/xlink"><defs><linearGradient id="b" x1=".61996" x2="3.6134" y1=".61996" y2="3.6134" gradientUnits="userSpaceOnUse"><stop stop-color="#abff00" offset="0"/><stop stop-color="#00ff9f" offset="1"/></linearGradient><filter id="c" x="-.064792" y="-.064792" width="1.1296" height="1.1296" color-interpolation-filters="sRGB"><feFlood flood-color="rgb(0,0,0)" flood-opacity=".27843" in="SourceGraphic" result="flood"/><feGaussianBlur in="SourceGraphic" result="blur" stdDeviation="0.100000"/><feOffset dx="0.000000" dy="0.000000" in="blur" result="offset"/><feComposite in="flood" in2="offset" operator="in" result="comp1"/><feComposite in="SourceGraphic" in2="comp1" result="comp2"/></filter><linearGradient id="a" x1=".63734" x2="3.596" y1="3.596" y2=".63734" gradientUnits="userSpaceOnUse"><stop stop-color="#c9e1bb" offset="0"/><stop stop-color="#d5ffaf" offset="1"/></linearGradient></defs><path d="m0.26458 0.26458 0.26458 3.7042h0.52917l0.26458-0.79375 0.26458 0.79375h0.52917l0.26458-3.7042h-0.52917l-0.26458 2.3812-0.26458-0.79375-0.26458 0.79375-0.26458-2.3812h-0.52917zm2.3812 0-0.26458 3.7042h0.52917l0.11369-1.5875h0.79582l0.033073-0.52917h-0.79117l0.075448-1.0583h0.7984l0.033073-0.52917h-1.3229z" fill="none" stroke="url(#b)" stroke-linejoin="round" stroke-opacity=".41916" stroke-width=".52917" style="paint-order:stroke markers fill"/><path d="m0.26458 0.26458 0.26458 3.7042h0.52917l0.26458-0.79375 0.26458 0.79375h0.52917l0.26458-3.7042h-0.52917l-0.26458 2.3812-0.26458-0.79375-0.26458 0.79375-0.26458-2.3812h-0.52917zm2.3812 0-0.26458 3.7042h0.52917l0.11369-1.5875h0.79582l0.033073-0.52917h-0.79117l0.075448-1.0583h0.7984l0.033073-0.52917h-1.3229z" fill="url(#a)" filter="url(#c)" style="paint-order:stroke markers fill"/></svg>
