<svg version="1" xmlns="http://www.w3.org/2000/svg" width="933.333" height="933.333" viewBox="0 0 700.000000 700.000000"><path d="M327.8.4c-.1.2-3.9.6-8.3 1-8.9.7-14.4 1.3-22.5 2.6-3 .5-7.5 1.2-10 1.6-4.7.6-5 .7-9 1.7-1.4.4-7 1.8-12.5 3.1-34.2 8.3-71 23.8-101 42.6C109.1 87.8 63.6 138.6 35 197.5c-11.5 23.6-22.7 55.7-26.5 75.6-.3 1.3-1.1 5.8-2 9.9-2.9 14.7-3.6 19.9-5.2 37-1.5 16.4-.8 58.9 1.2 71.1.2 1.3.6 4.6 1 7.4 1.2 9.8 2.3 16.1 5 28.5 3.1 14.2 10.9 39.3 17.5 55.5 4.9 12.3 17.3 37 23.5 46.8 3 4.9 5.5 9 5.5 9.3 0 .3.4 1 1 1.7.5.7 4.6 6.4 9.1 12.6 37.8 53.6 92 96.5 153.4 121.4 15.2 6.2 41.6 14.5 54.8 17.3 9.2 1.9 21.1 4.1 27.2 4.9 2.2.2 5.6.7 7.5 1 18.7 2.6 69.7 2.7 83.8 0 1.6-.3 10.4-1.5 14.7-2 18.4-2.4 54.1-12.6 77.2-22.1 12-4.9 31.4-14.4 39.5-19.4 3.7-2.2 7-4 7.3-4 .3 0 1.1-.5 1.8-1 .7-.6 6.5-4.5 12.9-8.8 10-6.6 22.6-16 31.7-23.7 10.1-8.5 30.4-28.8 37.6-37.5 2.1-2.5 4-4.7 4.4-5 1.2-.9 13.6-17.2 19.3-25.5 12.4-17.9 26.8-44.4 35.3-65 6.8-16.4 15.1-42.6 18.1-57 1.6-7.9 5.4-30.1 5.9-35 .4-3.3.9-7.1 1.1-8.5.9-4.7 1.1-52.5.3-60.5-1.5-16.5-2.1-22-2.4-22.5-.2-.3-.6-3-1-6-.3-3-1-7.1-1.5-9-.5-1.9-1.2-5.1-1.5-7-.3-1.9-1.9-8.7-3.5-15-16.1-64.4-52.6-125-103.1-171.5-34.7-31.9-79-58.1-123.2-72.9-19-6.4-42.9-12.3-56.7-14.1-1.9-.3-4.6-.7-6-1-1.3-.2-5.2-.7-8.6-1.1-3.3-.3-7.4-.8-9-1-3.2-.5-54-1.4-54.6-1zm48.2 59c18 1.9 47.9 7.4 52.3 9.7.9.6 1.7.7 1.7.5 0-.6 19.6 6.1 30.2 10.3 13.5 5.4 36.2 17.1 47.7 24.7 2 1.4 4.4 3 5.5 3.7 13.2 8.6 29.2 22 43.6 36.6 37.2 37.6 62.9 82.8 75.5 132.9 6.7 26.9 9 45.7 8.8 73.7-.1 22.3-.6 28.9-4.4 50.5-15.4 88.8-74.5 167.6-156.2 208.6-27.8 14-61.8 24.7-88.9 28-2.4.2-5.3.7-6.5.9-11.1 2.4-55.9 2.4-70.3.1-1.4-.2-4.7-.7-7.5-1.1-2.7-.3-10.4-1.7-17-3.1-79.1-16.2-149.2-66.2-191.2-136.4-22.5-37.7-36.7-82.1-40-125.5-1.2-15.9-.4-56.8 1.2-59.5.1-.3.5-2.8.9-5.5 2.5-21.7 12.1-55.3 21.8-76.4 5.6-12.3 15.6-31.6 18-34.6.4-.6 3.8-5.5 7.4-11 9.7-14.6 20.2-27.3 34.9-42 20.8-20.8 36.6-33.1 61.8-47.9 1.8-1 8.8-4.7 15.7-8.1 11.2-5.5 17.1-8 34.5-14.6 8.6-3.2 29.5-8.6 42-10.7 16.2-2.8 18.5-3.1 30-3.8 5.5-.4 10.1-.8 10.3-.9.5-.4 32 .3 38.2.9z"/><path d="M336 278.5c-45.1 9.2-70.5 56.3-53.3 99.1 7.3 18.4 22.3 33 41.2 40.3 9.7 3.7 12.3 4.2 25.1 4.6 22 .6 41.6-8.3 56.6-25.7 17.3-19.9 22-49.1 11.9-74-13.1-32.3-47.9-51.2-81.5-44.3z"/></svg>