<?xml version="1.0" encoding="UTF-8" standalone="no"?>
<!-- Created with Inkscape (http://www.inkscape.org/) -->

<svg
   width="97.933807mm"
   height="44.276855mm"
   version="1.1"
   viewBox="0 0 97.933804 44.276854"
   id="svg8"
   sodipodi:docname="circuit.svg"
   inkscape:version="1.1.1 (3bf5ae0d25, 2021-09-20)"
   xmlns:inkscape="http://www.inkscape.org/namespaces/inkscape"
   xmlns:sodipodi="http://sodipodi.sourceforge.net/DTD/sodipodi-0.dtd"
   xmlns="http://www.w3.org/2000/svg"
   xmlns:svg="http://www.w3.org/2000/svg">
  <defs
     id="defs12">
    <filter
       style="color-interpolation-filters:sRGB"
       inkscape:label="Drop Shadow"
       id="filter180"
       x="-0.025769347"
       y="-0.060795117"
       width="1.0515387"
       height="1.1215902">
      <feFlood
         flood-opacity="0.33000000000000002"
         flood-color="rgb(255,255,255)"
         result="flood"
         id="feFlood170" />
      <feComposite
         in="flood"
         in2="SourceGraphic"
         operator="in"
         result="composite1"
         id="feComposite172" />
      <feGaussianBlur
         in="composite1"
         stdDeviation="1"
         result="blur"
         id="feGaussianBlur174" />
      <feOffset
         dx="0"
         dy="0"
         result="offset"
         id="feOffset176" />
      <feComposite
         in="SourceGraphic"
         in2="offset"
         operator="over"
         result="composite2"
         id="feComposite178" />
    </filter>
  </defs>
  <sodipodi:namedview
     id="namedview10"
     pagecolor="#ffffff"
     bordercolor="#666666"
     borderopacity="1.0"
     inkscape:pageshadow="2"
     inkscape:pageopacity="0.0"
     inkscape:pagecheckerboard="0"
     inkscape:document-units="mm"
     showgrid="false"
     inkscape:zoom="3.7869452"
     inkscape:cx="184.97759"
     inkscape:cy="83.576598"
     inkscape:window-width="3440"
     inkscape:window-height="1380"
     inkscape:window-x="0"
     inkscape:window-y="28"
     inkscape:window-maximized="1"
     inkscape:current-layer="svg8"
     fit-margin-top="0"
     fit-margin-left="0"
     fit-margin-right="0"
     fit-margin-bottom="0" />
  <g
     transform="translate(-12.110247,-73.453337)"
     id="g6"
     style="fill:#808080;filter:url(#filter180)">
    <g
       transform="matrix(0.35278,0,0,0.35278,3.0814,54.06)"
       id="g4"
       style="fill:#808080">
      <path
         transform="matrix(0.75,0,0,0.75,32.395,61.776)"
         d="m 111.94,0 -9.375,21.875 -3.7695,-8.793 a 1,1 0 0 0 -0.0039,-0.0059 1,1 0 0 0 -0.31445,-0.40039 1,1 0 0 0 -0.0039,-0.002 1,1 0 0 0 -0.5957,-0.19727 h -21.875 a 1,1 0 0 0 -0.67969,0.28125 1,1 0 0 0 -0.03906,0.03906 1,1 0 0 0 -0.28125,0.67969 v 46.645 c -1.1261,0.33734 -2.0184,1.2297 -2.3555,2.3555 h -71.645 a 1,1 0 0 0 -1,1 1,1 0 0 0 1,1 h 71.646 c 0.33764,1.1247 1.2282,2.0164 2.3535,2.3535 v 46.646 a 1,1 0 0 0 0.28125,0.67969 1,1 0 0 0 0.04102,0.0391 1,1 0 0 0 0.67773,0.28125 h 21.215 l 5.3477,12.477 9.375,-21.875 9.375,21.875 9.375,-21.875 9.375,21.875 9.375,-21.875 3.7676,8.791 a 1,1 0 0 0 0.0312,0.0391 1,1 0 0 0 0.2832,0.35938 1,1 0 0 0 0.01,0.01 1,1 0 0 0 0.43164,0.17383 1,1 0 0 0 0.0801,0.0117 1,1 0 0 0 0.084,0.0137 h 21.875 21.215 l 5.3477,12.477 9.375,-21.875 9.375,21.875 9.375,-21.875 9.375,21.875 9.375,-21.875 3.7676,8.791 a 1,1 0 0 0 0.0312,0.0391 1,1 0 0 0 0.2832,0.35938 1,1 0 0 0 0.01,0.01 1,1 0 0 0 0.43164,0.17383 1,1 0 0 0 0.0801,0.0117 1,1 0 0 0 0.084,0.0137 h 21.875 a 1,1 0 0 0 0.67773,-0.28125 1,1 0 0 0 0.041,-0.041 1,1 0 0 0 0.28125,-0.67774 V 66.829371 c 1.124,-0.33759 2.014,-1.2276 2.3516,-2.3516 h 71.648 a 1,1 0 0 0 1,-1 1,1 0 0 0 -1,-1 h -71.646 c -0.33707,-1.1251 -1.2288,-2.0157 -2.3535,-2.3535 v -46.646 a 1,1 0 0 0 -0.0352,-0.25976 1,1 0 0 0 -0.002,-0.0039 1,1 0 0 0 -0.0937,-0.22656 1,1 0 0 0 -0.0117,-0.01953 1,1 0 0 0 -0.34765,-0.34961 1,1 0 0 0 -0.0195,-0.01172 1,1 0 0 0 -0.23242,-0.0957 1,1 0 0 0 -0.002,0 1,1 0 0 0 -0.25586,-0.0332 h -21.217 l -5.3457,-12.477 -9.375,21.875 -9.375,-21.875 -9.375,21.875 -9.375,-21.875 -9.375,21.875 -3.7695,-8.793 a 1,1 0 0 0 -0.004,-0.0059 1,1 0 0 0 -0.31445,-0.40039 1,1 0 0 0 -0.004,-0.002 1,1 0 0 0 -0.5957,-0.19727 h -21.875 -21.217 l -5.3457,-12.477 -9.375,21.875 -9.375,-21.875 -9.375,21.875 -9.375,-21.875 z m 0,5.0781 9.375,21.875 9.375,-21.875 9.375,21.875 9.375,-21.875 3.7676,8.791 a 1,1 0 0 0 0.0312,0.03906 1,1 0 0 0 0.2832,0.35938 1,1 0 0 0 0.01,0.0098 1,1 0 0 0 0.43164,0.17383 1,1 0 0 0 0.0801,0.01172 1,1 0 0 0 0.084,0.01367 h 21.875 21.215 l 5.3477,12.477 9.375,-21.875 9.375,21.875 9.375,-21.875 9.375,21.875 9.375,-21.875 3.7676,8.791 a 1,1 0 0 0 0.0312,0.03906 1,1 0 0 0 0.2832,0.35938 1,1 0 0 0 0.01,0.0098 1,1 0 0 0 0.43164,0.17383 1,1 0 0 0 0.0801,0.01172 1,1 0 0 0 0.084,0.01367 h 20.875 v 45.645 c -1.4432,0.43232 -2.5,1.7762 -2.5,3.3555 0,1.5793 1.0568,2.9212 2.5,3.3535 v 45.646 h -20.217 l -5.3457,-12.477 -9.375,21.875 -9.375,-21.875 -9.375,21.875 -9.375,-21.875 -9.375,21.875 -3.7695,-8.793 a 1,1 0 0 0 -0.004,-0.006 1,1 0 0 0 -0.31445,-0.40039 1,1 0 0 0 -0.004,-0.002 1,1 0 0 0 -0.5957,-0.19727 h -21.875 -21.217 l -5.3457,-12.477 -9.375,21.875 -9.375,-21.875 -9.375,21.875 -9.375,-21.875 -9.375,21.875 -3.7695,-8.793 a 1,1 0 0 0 -0.0039,-0.006 1,1 0 0 0 -0.31445,-0.40039 1,1 0 0 0 -0.0039,-0.002 1,1 0 0 0 -0.5957,-0.19727 h -20.875 V 66.828016 c 1.4416,-0.43299 2.5,-1.7729 2.5,-3.3516 0,-1.5787 -1.0584,-2.9205 -2.5,-3.3535 v -45.646 h 20.215 l 5.3477,12.477 9.375,-21.875 z m 119.79,42.373 c -1.099,0 -1.9688,0.26823 -2.6094,0.80469 -0.63542,0.53646 -1.0156,1.3151 -1.1406,2.3359 l 2.2109,0.125 c 0.0729,-0.50521 0.23177,-0.88281 0.47656,-1.1328 0.25,-0.25521 0.60938,-0.38281 1.0781,-0.38281 0.96354,0 1.4453,0.47917 1.4453,1.4375 0,0.39063 -0.15625,0.78906 -0.46875,1.1953 -0.30729,0.40625 -0.84635,0.92187 -1.6172,1.5469 -0.80208,0.65104 -1.4687,1.276 -2,1.875 -0.52604,0.59895 -0.93229,1.2135 -1.2188,1.8438 v 1.5234 h 7.7031 v -1.8047 h -5.1094 c 0.14583,-0.33854 0.36719,-0.65625 0.66406,-0.95312 0.30208,-0.29688 0.63542,-0.59115 1,-0.88281 0.36458,-0.29167 0.73958,-0.59115 1.125,-0.89844 0.39063,-0.30729 0.7448,-0.63542 1.0625,-0.98438 0.31771,-0.35417 0.57813,-0.73958 0.78126,-1.1562 0.20312,-0.41667 0.30468,-0.88281 0.30468,-1.3984 0,-0.97917 -0.3177,-1.7396 -0.95312,-2.2812 -0.63542,-0.5416 -1.5469,-0.8125 -2.7344,-0.8125 z m -114.88,0.16406 v 11.008 h 2.3047 v -4.1797 h 2.7031 l 2.5547,4.1797 h 2.5938 l -2.9766,-4.625 c 0.74479,-0.17708 1.3359,-0.54427 1.7734,-1.1016 0.43749,-0.56251 0.65624,-1.2292 0.65624,-2 0,-1.0573 -0.35677,-1.8672 -1.0703,-2.4297 -0.71354,-0.56771 -1.7266,-0.85156 -3.0391,-0.85156 h -5.5 z m 14.336,0 -2.7578,1.7891 v 1.7266 l 2.6406,-1.6484 v 7.5078 h -2.7266 v 1.6328 h 7.4453 v -1.6328 h -2.5234 v -9.375 h -2.0781 z m 85.664,0 v 11.008 h 2.3047 v -4.1797 h 2.7031 l 2.5547,4.1797 h 2.5938 l -2.9766,-4.625 c 0.74479,-0.17708 1.3359,-0.54427 1.7734,-1.1016 0.43749,-0.56251 0.65624,-1.2292 0.65624,-2 0,-1.0573 -0.35677,-1.8672 -1.0703,-2.4297 -0.71354,-0.56771 -1.7266,-0.85156 -3.0391,-0.85156 h -5.5 z m -97.695,1.7891 h 2.9531 c 1.3542,0 2.0312,0.52864 2.0312,1.5859 0,0.52604 -0.16666,0.93489 -0.5,1.2266 -0.33333,0.29166 -0.82292,0.4375 -1.4688,0.4375 h -3.0156 v -3.25 z m 100,0 h 2.9531 c 1.3542,0 2.0312,0.52864 2.0312,1.5859 0,0.52604 -0.16666,0.93489 -0.5,1.2266 -0.33333,0.29166 -0.82292,0.4375 -1.4688,0.4375 h -3.0156 v -3.25 z m -87.453,88.447 c -1.0833,0 -1.9609,0.26823 -2.6328,0.80469 -0.67188,0.53645 -1.0651,1.2786 -1.1797,2.2266 l 2.1953,0.15625 c 0.0417,-0.45834 0.20053,-0.8125 0.47657,-1.0625 0.28125,-0.25 0.64843,-0.375 1.1016,-0.375 0.48437,0 0.85156,0.13021 1.1016,0.39063 0.25521,0.25521 0.38281,0.60938 0.38281,1.0625 1e-5,0.47917 -0.15885,0.84895 -0.47656,1.1094 -0.31771,0.25521 -0.79167,0.38282 -1.4219,0.38282 h -0.71875 v 1.7734 h 0.76562 c 0.69791,0 1.224,0.13021 1.5781,0.39063 0.3541,0.26042 0.53125,0.63542 0.53125,1.125 0,0.53646 -0.14583,0.93489 -0.4375,1.1953 -0.29166,0.26042 -0.70052,0.39063 -1.2266,0.39063 -1.0625,0 -1.6641,-0.52864 -1.8047,-1.5859 l -2.2344,0.19531 c 0.1198,1.026 0.52865,1.8125 1.2266,2.3594 0.69791,0.54167 1.638,0.8125 2.8203,0.8125 1.25,0 2.2135,-0.28125 2.8906,-0.84374 0.67709,-0.5625 1.0156,-1.3594 1.0156,-2.3906 0,-0.70833 -0.22916,-1.2891 -0.6875,-1.7422 -0.45312,-0.45833 -1.1016,-0.73698 -1.9453,-0.83594 v -0.0312 c 0.76042,-0.14584 1.3412,-0.44011 1.7422,-0.88282 0.40625,-0.44271 0.60938,-1.0078 0.60938,-1.6953 0,-0.91667 -0.32553,-1.6328 -0.97657,-2.1484 -0.64583,-0.52083 -1.5443,-0.78125 -2.6953,-0.78125 z m -14.852,0.16406 v 11.008 h 2.3047 v -4.1797 h 2.7031 l 2.5547,4.1797 h 2.5938 l -2.9766,-4.625 c 0.74479,-0.17709 1.3359,-0.54428 1.7734,-1.1016 0.43749,-0.56251 0.65624,-1.2292 0.65624,-2 0,-1.0573 -0.35677,-1.8672 -1.0703,-2.4297 -0.71354,-0.56771 -1.7266,-0.85157 -3.0391,-0.85157 h -5.5 z m 100,0 v 11.008 h 2.3047 v -4.1797 h 2.7031 l 2.5547,4.1797 h 2.5938 l -2.9766,-4.625 c 0.74479,-0.17709 1.3359,-0.54428 1.7734,-1.1016 0.43749,-0.56251 0.65624,-1.2292 0.65624,-2 0,-1.0573 -0.35677,-1.8672 -1.0703,-2.4297 -0.71354,-0.56771 -1.7266,-0.85157 -3.0391,-0.85157 h -5.5 z m 15.375,0 -4.6484,7.1172 v 1.6484 h 5.0078 v 2.2422 h 2.0938 v -2.2422 h 1.4687 v -1.6328 h -1.4687 v -7.1328 h -2.4531 z m -113.07,1.7891 h 2.9531 c 1.3542,0 2.0312,0.52864 2.0312,1.5859 0,0.52604 -0.16666,0.9349 -0.5,1.2266 -0.33333,0.29166 -0.82292,0.4375 -1.4688,0.4375 h -3.0156 v -3.25 z m 100,0 h 2.9531 c 1.3542,0 2.0312,0.52864 2.0312,1.5859 0,0.52604 -0.16666,0.9349 -0.5,1.2266 -0.33333,0.29166 -0.82292,0.4375 -1.4688,0.4375 h -3.0156 v -3.25 z m 13.5,0.19531 c -0.0105,0.0937 -0.0261,0.30469 -0.0469,0.63281 -0.0156,0.32813 -0.0234,0.63281 -0.0234,0.91407 v 3.6016 h -3.2187 l 2.5547,-3.8828 c 0.35416,-0.55208 0.59896,-0.97396 0.73438,-1.2656 z"
         color="#000000"
         fill="#3b4449"
         stroke-linecap="round"
         stroke-miterlimit="6"
         stroke-width="1.3333"
         style="fill:#808080;-inkscape-stroke:none"
         id="path2" />
    </g>
  </g>
</svg>
