<svg viewBox="0 0 128 32">
  <g fill="none" stroke="currentColor" stroke-linejoin="bevel">
    <path stroke-width=".625" d="M40 27.5H0m88 0h40m-84-8 1-4 2 8 2-8 2 8 2-8 2 8 1-4h16l1-4 2 8 2-8 2 8 2-8 2 8 1-4h4v16h-4l-1 4-2-8-2 8-2-8-2 8-2-8-1 4H56l-1 4-2-8-2 8-2-8-2 8-2-8-1 4h-4v-16z"/>
    <g fill="currentColor" stroke="none" font-family="KaTeX_Main" font-size="4" text-anchor="middle">
      <text xml:space="preserve" x="49" y="27.5"><tspan x="49" y="27.5">R1</tspan></text>
      <text xml:space="preserve" x="78" y="27.5"><tspan x="78" y="27.5">R2</tspan></text>
      <text xml:space="preserve" x="78" y="43.5"><tspan x="78" y="43.5">R4</tspan></text>
      <text xml:space="preserve" x="50" y="43.5"><tspan x="50" y="43.5">R3</tspan></text>
    </g>
  </g>
  <circle cx="40" cy="27.5" r="1" fill="currentColor"/>
  <circle cx="88" cy="27.5" r="1" fill="currentColor"/>
</svg>
