<svg viewBox="0 0 128 32" xmlns="http://www.w3.org/2000/svg">
  <g fill="none" stroke="currentColor" stroke-linejoin="bevel">
    <path stroke-width=".625" d="M40 14H0m88 0h40m-84-8 1-4 2 8 2-8 2 8 2-8 2 8 1-4h16l1-4 2 8 2-8 2 8 2-8 2 8 1-4h4v16h-4l-1 4-2-8-2 8-2-8-2 8-2-8-1 4H56l-1 4-2-8-2 8-2-8-2 8-2-8-1 4h-4v-16z"/>
    <g fill="currentColor" stroke="none" font-family="KaTeX_Main" font-size="4" text-anchor="middle">
      <text xml:space="preserve" x="49" y="14"><tspan x="49" y="14">R1</tspan></text>
      <text xml:space="preserve" x="78" y="14"><tspan x="78" y="14">R2</tspan></text>
      <text xml:space="preserve" x="78" y="30"><tspan x="78" y="30">R4</tspan></text>
      <text xml:space="preserve" x="50" y="30"><tspan x="50" y="30">R3</tspan></text>
    </g>
  </g>
  <circle cx="40" cy="14" r="1" fill="currentColor"/>
  <circle cx="88" cy="14" r="1" fill="currentColor"/>
</svg>
